<?xml version="1.0" encoding="UTF-8"?>
<svg id="icons" xmlns="http://www.w3.org/2000/svg" viewBox="0 0 80 80"><defs><style>.cls-1{fill:#d83c00;}</style></defs><title>arden-icon-calendar-engineering</title><path class="cls-1" d="M37.85,46a6.09,6.09,0,0,0,1.8-4.32,5.82,5.82,0,0,0-.47-2.36,6.58,6.58,0,0,0-1.29-1.94A6.14,6.14,0,0,0,36,36a5.47,5.47,0,0,0-2.31-.49,5.7,5.7,0,0,0-2.32.48,6.07,6.07,0,0,0-1.89,1.3,6,6,0,0,0-1.29,1.94,5.89,5.89,0,0,0-.48,2.38,1.55,1.55,0,0,0,1.52,1.54,1.54,1.54,0,0,0,1.54-1.54A2.82,2.82,0,0,1,31,40.47a3.28,3.28,0,0,1,.63-.95,3.35,3.35,0,0,1,.93-.64,2.78,2.78,0,0,1,1.14-.24,2.64,2.64,0,0,1,1.11.24,3.35,3.35,0,0,1,.93.64,3.12,3.12,0,0,1,.64.95,3,3,0,0,1,.23,1.16,2.94,2.94,0,0,1-.23,1.14,3.1,3.1,0,0,1-.63.94,3,3,0,0,1-.93.64,2.72,2.72,0,0,1-1.12.24,1.46,1.46,0,0,0-1.1.44,1.61,1.61,0,0,0,0,2.21,1.47,1.47,0,0,0,1.1.45,3.81,3.81,0,0,1,1.57.33,4,4,0,0,1,1.28.89,4,4,0,0,1,.86,1.3,4.13,4.13,0,0,1-.86,4.47,3.85,3.85,0,0,1-1.28.88,3.66,3.66,0,0,1-1.57.33,3.75,3.75,0,0,1-1.58-.32,3.93,3.93,0,0,1-1.28-.87A4.15,4.15,0,0,1,30,53.4a4.05,4.05,0,0,1-.31-1.61,1.48,1.48,0,0,0-.45-1.11,1.51,1.51,0,0,0-1.09-.44,1.48,1.48,0,0,0-1.09.44,1.5,1.5,0,0,0-.43,1.11,7.15,7.15,0,0,0,.55,2.81,7.36,7.36,0,0,0,1.53,2.29,7.23,7.23,0,0,0,2.25,1.55,6.91,6.91,0,0,0,2.76.56,6.74,6.74,0,0,0,2.75-.57,7.17,7.17,0,0,0,3.78-3.85,7.06,7.06,0,0,0,.56-2.79A7.17,7.17,0,0,0,37.85,46Z"/><path class="cls-1" d="M49.11,35.58a1.42,1.42,0,0,0-.53.1l-3.35,1.11a1.75,1.75,0,0,0-.74.6,1.53,1.53,0,0,0-.24.84,1.47,1.47,0,0,0,.43,1.09,1.45,1.45,0,0,0,1.09.43,2.56,2.56,0,0,0,.88-.18l.92-.33V57.48A1.54,1.54,0,0,0,49.09,59a1.5,1.5,0,0,0,1.1-.45,1.46,1.46,0,0,0,.44-1.07V37.12A1.52,1.52,0,0,0,50.2,36,1.48,1.48,0,0,0,49.11,35.58Z"/><path class="cls-1" d="M66,8H59V5A5,5,0,0,0,49,5V8H31V5A5,5,0,0,0,21,5V8H14a6,6,0,0,0-6,6V66a6,6,0,0,0,6,6H66a6,6,0,0,0,6-6V14A6,6,0,0,0,66,8ZM51,5a3,3,0,0,1,6,0v8a3,3,0,0,1-6,0ZM23,5a3,3,0,0,1,6,0v8a3,3,0,0,1-6,0ZM66,68H14a2,2,0,0,1-2-2V26H68V66A2,2,0,0,1,66,68Z"/></svg>