<?xml version="1.0" encoding="UTF-8"?>
<svg id="icons" xmlns="http://www.w3.org/2000/svg" viewBox="0 0 80 80"><defs><style>.cls-1{fill:#d83c00;}</style></defs><title>arden-icon-price-discount-engineering</title><path class="cls-1" d="M46.39,37a2.83,2.83,0,0,0-2.07.86A2.91,2.91,0,0,0,48.43,42a2.82,2.82,0,0,0,.86-2.06A2.87,2.87,0,0,0,46.39,37Z"/><path class="cls-1" d="M72.05,3.32H50.22a13.56,13.56,0,0,0-8.44,3.17C40.37,7.74,7.33,37.21,5.63,38.9,2.57,42,2.1,46,4.38,49.43c1.55,2.32,12.35,12.84,22.71,22.84l2.54,2.46a6.55,6.55,0,0,0,4.65,2,8.82,8.82,0,0,0,6.18-3c2.89-2.89,32.91-33.6,33.26-34a13.82,13.82,0,0,0,3.33-8.44v-23A5,5,0,0,0,72.05,3.32ZM35.42,42a5.94,5.94,0,0,1-4.23,4.24,6.26,6.26,0,0,1-3.1,0A5.86,5.86,0,0,1,23.89,42a6.14,6.14,0,0,1,0-3.1,5.72,5.72,0,0,1,1.54-2.71,5.65,5.65,0,0,1,2.68-1.51,6.18,6.18,0,0,1,3.11,0,5.83,5.83,0,0,1,4.2,4.2A6.07,6.07,0,0,1,35.42,42ZM40.71,54a1.45,1.45,0,0,1-1.09.46A1.48,1.48,0,0,1,38.55,54a1.4,1.4,0,0,1-.47-1L34.9,27.56a1.65,1.65,0,0,1,.44-1.3,1.56,1.56,0,0,1,2.19,0,1.46,1.46,0,0,1,.42.89l3.23,25.76A1.47,1.47,0,0,1,40.71,54ZM52.15,41.45a5.93,5.93,0,0,1-4.24,4.24,6.14,6.14,0,0,1-3.07,0,5.88,5.88,0,0,1-2.69-1.54,5.77,5.77,0,0,1-1.53-2.69,5.92,5.92,0,0,1,0-3.07,5.69,5.69,0,0,1,1.53-2.68,5.82,5.82,0,0,1,2.66-1.54,5.93,5.93,0,0,1,3.1,0,5.79,5.79,0,0,1,2.71,1.53,5.69,5.69,0,0,1,1.53,2.69A6.07,6.07,0,0,1,52.15,41.45Zm11.9-19.13a6,6,0,1,1,6-6A6,6,0,0,1,64.05,22.32Z"/><path class="cls-1" d="M29.64,37.53a2.92,2.92,0,1,0,0,5.83,2.85,2.85,0,0,0,2.08-.87,2.91,2.91,0,0,0-2.08-5Z"/></svg>