<?xml version="1.0" encoding="UTF-8"?>
<svg id="icons" xmlns="http://www.w3.org/2000/svg" viewBox="0 0 80 80"><defs><style>.cls-1{fill:#d83c00;}</style></defs><title>arden-icon-time-engineering</title><path class="cls-1" d="M40,4A36,36,0,1,0,76,40,36,36,0,0,0,40,4ZM14,42H10a2,2,0,0,1,0-4h4a2,2,0,0,1,0,4ZM42,70a2,2,0,0,1-4,0V66a2,2,0,0,1,4,0ZM53.43,53.43a3,3,0,0,1-2.12.88,3,3,0,0,1-2.12-.88L37.88,42.12a3.44,3.44,0,0,1-.38-.46l-.11-.21a2.19,2.19,0,0,1-.16-.3c0-.1-.06-.2-.09-.3a2.58,2.58,0,0,1-.08-.26A3,3,0,0,1,37,40V16a3,3,0,0,1,6,0V38.76L53.43,49.19A3,3,0,0,1,53.43,53.43ZM70,42H66a2,2,0,0,1,0-4h4a2,2,0,0,1,0,4Z"/></svg>