<?xml version="1.0" encoding="UTF-8"?>
<svg id="logo" xmlns="http://www.w3.org/2000/svg" viewBox="0 0 118 40"><defs><style>.cls-1{fill:#12110b;}.cls-2{fill:#a6192e;}.cls-10,.cls-11,.cls-2,.cls-3,.cls-4,.cls-5,.cls-6,.cls-7,.cls-8,.cls-9{fill-rule:evenodd;}.cls-3{fill:#7f707c;}.cls-12,.cls-4{fill:#fff;}.cls-5{fill:#e0dcdf;}.cls-6{fill:#ada6ab;}.cls-7{fill:#8d838b;}.cls-8{fill:#443a40;}.cls-9{fill:#423c3d;}.cls-10{fill:#5e4f5e;}.cls-11{fill:#ccc0cc;}</style></defs><title>brands</title><rect class="cls-1" x="77.47" y="0.37" width="40.19" height="39.46"/><polygon class="cls-2" points="77.4 5.63 77.4 0.3 88.14 0.3 77.4 5.63"/><path class="cls-3" d="M84.12,15.59a1.73,1.73,0,0,0,1.64.56C86.62,15.85,101,9,101,9s.84-.18.57-1.75L84.12,15.59"/><path class="cls-4" d="M77.4,18.62V15.94L109.35.3h6.56Zm0-5.4L103.79.3h5L77.4,15.66Zm0-2.8L97.82.3h5.49L77.4,13Zm0-1L95.36.3h.83L77.4,9.78Zm0-1.52L92.35.3h.71L77.4,8.21Zm0-.54L91.28.3h.6L77.4,7.61Zm0-1L89.2.3h1.15l-13,6.54Zm0-.71L87.86.3h.46L77.4,5.75Zm24,2.12c.17.28.27.26-.07.38-.13,0-.17.08-.18.1l-.06,0c-.29-.15-.29.25-.42.29a.14.14,0,0,1-.13,0c.17.25.35.51.1.6s-.37-.3-.58-.41-.28.25-.42.29a.14.14,0,0,1-.13,0c.18.25.35.51.1.6s-.36-.3-.57-.41-.28.25-.42.29a.14.14,0,0,1-.13,0c.17.25.35.51.1.6s-.37-.3-.58-.41-.28.25-.41.3a.16.16,0,0,1-.13,0c.18.25.35.51.1.6s-.36-.3-.58-.41-.25.06-.32.18c.19.26.41.56.14.66s-.37-.3-.58-.41-.28.25-.42.29a.15.15,0,0,1-.13,0c.18.25.35.51.1.6s-.36-.3-.58-.41-.28.25-.42.29a.14.14,0,0,1-.13,0c.17.24.35.51.1.6s-.36-.3-.58-.41-.28.25-.42.29a.14.14,0,0,1-.13,0c.17.25.35.51.1.6s-.37-.3-.58-.41-.28.25-.42.29a.15.15,0,0,1-.13,0c.18.25.35.51.1.6s-.37-.3-.58-.41-.28.25-.42.29a.15.15,0,0,1-.13,0c.17.25.35.51.1.6s-.36-.3-.58-.41-.28.25-.41.29h-.07c.18.25.36.52.11.61s-.37-.3-.58-.41-.28.25-.41.29a.14.14,0,0,1-.13,0c.17.25.35.51.1.6s-.36-.3-.58-.41-.28.25-.42.29a.14.14,0,0,1-.13,0c.17.25.35.51.1.6s-.37-.3-.58-.41-.28.25-.42.3a.15.15,0,0,1-.13,0c.18.25.35.51.1.6s-.36-.3-.58-.41-.28.25-.42.3a.15.15,0,0,1-.13,0c.17.25.35.51.1.6s-.36-.3-.57-.41-.29.25-.42.3a.16.16,0,0,1-.13,0c.17.25.35.51.1.6s-.37-.3-.58-.42-.28.25-.42.3-.19,0-.39-.37c0,0,.79-.57,1.06-.41l0-.06s.79-.57,1.06-.41l0-.06s.79-.57,1.05-.41l0-.06s.79-.57,1.05-.41l0-.06s.79-.57,1.05-.41l0-.06s.69-.49,1-.43l0-.07s.79-.57,1.06-.41l0-.06s.79-.57,1.06-.41l0-.06s.79-.57,1.06-.41l0-.06s.79-.57,1.05-.41l0-.06s.79-.57,1.06-.41l0-.06a3.26,3.26,0,0,1,.76-.41h0s.79-.57,1.06-.41l0-.06S98,8.86,98.3,9l0-.06s.79-.57,1.06-.41l0-.06s.79-.57,1.05-.41l0-.06s.93-.67,1.11-.36m-15.74,9c2.26-1.19,13.89-6.66,15-7s4.21-.53,3.57,3.31c-.6,3.61-2.18,4.67-2.18,4.67S99.94,20,97.92,18.94c.58.36.66.59.73.78a.55.55,0,0,1-.14.65c.16.06.09.57.09.84s.38-.09.37.41c0,.11,0,.27,0,.27s.38.64.9.67,1.39,0,1.39,0,.83,0,.82.47a3.09,3.09,0,0,0,0,.61s.52,0,1.06,0,.84.11.94.7c.29-.09.38.23.38.49v.48s-.08,1,.65.17c.5-.57.71.5.68.88s.29,2.48.39,1.38c.08-.9.27-1.43.28-.82s.81,13,.81,13H90.65L91,25.78l-.2.2s-.16-.14.11-.52c.05-.21-.13-.19-.13-.19s-.09-.57.08-.64,0-.21,0-.22-.14-.74.07-.74,0-.16,0-.16S90.78,23,91,23s.58.36.34.5c0,.19,0,.17.16.12s.15,0,0-.21a.52.52,0,0,0-.3-.57c-.31-.11.07-.53.07-.53s.15-.65-.15-.47c-.11.07-.17,0-.18,0A12.18,12.18,0,0,1,94,19.69a11.94,11.94,0,0,1,3.91-.78l0-.09A11.91,11.91,0,0,0,94,19.6a12.18,12.18,0,0,0-3.1,2.05,1.33,1.33,0,0,1,.14-.41,4.62,4.62,0,0,1,1.76-1.55c.4-.22-.2-.25-.2-.25s-.16.54-.59.27c0,.3-.18.41-.48.36a.29.29,0,0,1-.31.44c.07.28-.12.43-.52.39s-.61-.39-.23-.88a4,4,0,0,1,1.77-1.52s0-.15.12-.2.16,0,.22,0,0-.14.19-.21.2,0,.29,0,0-.15.18-.2.21.06.3,0,.09-.19.26-.23.24,0,.36,0,.05-.25.32-.27.32.09.44.06,0-.2.34-.28.37.14.54.1.05-.27.37-.31.32.16.46.14a.51.51,0,0,1,.13-.08,2,2,0,0,1,0-.85c-.21,0-.45.26-.68.3s-.38-.1-.58-.05-.3.17-.44.21-.32,0-.48,0-.28.15-.43.2-.24,0-.36,0-.14.14-.24.18-.23,0-.32,0-.13.12-.2.15-.19,0-.28,0a6.9,6.9,0,0,0-3,2.29c-.19.19-.37.41-.37.41s0,4.73-4.5,5.39c-3,.44-2.29-3.9-2.2-4.37a6.65,6.65,0,0,1,3-4.37m11.09,7.79c.24-1,1.46-.75,1.46-.75A.8.8,0,0,0,97,23.57c-.23.18-.2.91-.2.91M96,24.15a.24.24,0,0,0-.13-.3c-.68-.27-.83.48-.83.48a.91.91,0,0,1,1-.18M93.38,25s.45-.53.78-.32.2-.44-.32-.35-.46.67-.46.67m-.53-1.39a2.52,2.52,0,0,0,2-1.07c.22-.41-.23.21-.88.57s-1.53.46-1.14.5m-.66,2.09s.43-.15.46-.36-.18-.47-.37-.3-.46.67-.09.66m-1-.83s0,.29.06.23a.18.18,0,0,0-.06-.23m-.09,1.6s.56.13.47-.38-.38.07-.47.38m.4-2.1c-.28.06-.07.17,0,.17s.55-.17.59-.45-.33.22-.6.28M92,22.28c0,.06.14.07.16,0s0-.2-.07-.2-.1.09-.1.09a.08.08,0,0,1,0,.1m.8-1.7c-.09.07-.91.48-.84,1a2,2,0,0,1,1.17-1c.42-.13-.24-.09-.33,0m1.31,2.1a2,2,0,0,0,.59-.46c.22-.28-.31.19-.55.31s0,.15,0,.15m.34-1.55c0-.1,0-.2-.11-.18s-.08.15-.08.15.22.12.19,0m.75-1.46s-.24-.05-1,.32c-.08,0,0,.18,0,.18a6.25,6.25,0,0,1,1.12-.33c.29,0-.1-.17-.1-.17m2,.6c0-.29-.12-.26-.08-.48a.29.29,0,0,0-.27-.36c-.13,0-.12,0-.12,0a.32.32,0,0,1,.21.31c0,.07,0,.17,0,.28s.16.1.17.16-.11.1-.1.15,0,.18.09.18.52,0,.53-.11-.42.13-.41-.15m-.51,1.46s.24-.56.49-.66-.4,0-.45.08a.68.68,0,0,0,0,.58m.49-.13a1.09,1.09,0,0,1,.44.11c.09.09.08-.31-.44-.11m-1.49.87s1.84,0,2-.71a6.46,6.46,0,0,1-2,.71M93.12,19c-.12-.19-.25-.15-.21-.06a1.41,1.41,0,0,1,.12.15c.06.09.21.11.09-.09m1-.08c-.2-.2-.16-.1-.46-.26,0,0-.08.46,0,.46s.56-.08.43-.2m.6-.18c-.08-.08-.35-.37-.26-.17l.17.24s.17,0,.09-.07m.76-.53c0-.42,0-.28-.13-.1-.33.34-.06.58-.31.58,0,0,.43.06.48,0s-.06,0,0-.46m1.1,0a3.16,3.16,0,0,0-.63.1c-.09.06.05.15.05.15a4.13,4.13,0,0,1,.61-.08c.05-.07,0-.17,0-.17m2.8.19s.21,0,.21,0a1.42,1.42,0,0,0,.8-.17,2.87,2.87,0,0,0,.76-.62,2.46,2.46,0,0,1-.82.54,3.48,3.48,0,0,1-1,.16.11.11,0,0,1,.07.05m-.55-.56c0,.07.26.07.26.07a2.93,2.93,0,0,0,1.67-.44,6.56,6.56,0,0,0,1.64-1.74c.15-.21.1-.3.1-.3a7.64,7.64,0,0,1-1.84,1.93,3.82,3.82,0,0,1-1.89.42s0,0,.06.06m1.37-2.34c0-.18-.14-.14-.14-.14a.76.76,0,0,1-.59.3.18.18,0,0,0-.07.25s.49.25.81-.41m-.74,1.2a1.52,1.52,0,0,0,1.39-.61c.12-.16,0-.24,0-.24a1.56,1.56,0,0,1-1.37.85M99.82,14a3,3,0,0,1,.54-.13v-.19a4.09,4.09,0,0,0-.6.14Zm.07,2.27a1.46,1.46,0,0,0,1-.74.16.16,0,0,0,0-.25,1.65,1.65,0,0,1-1,1m1,.41a3.34,3.34,0,0,1-1.87.69s.05.1.25.13a2.14,2.14,0,0,0,1.64-.67A4.87,4.87,0,0,0,102.13,15a.26.26,0,0,0,0-.22,5,5,0,0,1-1.26,1.82m-1.8-1.83a2.62,2.62,0,0,1,.2-.22c.11-.11-.31,0-.2.22m-.17-.32-.11-.1a3,3,0,0,0-.55,1.17,3.59,3.59,0,0,1,.65-1.07m-.92,0a8.73,8.73,0,0,1,1.71-1.43,2,2,0,0,1,1.17-.13v-.18a1.71,1.71,0,0,0-1.28.17A7.16,7.16,0,0,0,98,14.35Zm-1.26,3.42a2.35,2.35,0,0,0,.09.52s.51.09.45,0-.27-.19-.33-.54-.21-.18-.21,0m0-2.32c.2-.07,0-.14-.16-.14s0,.2.16.14m1.39-2a4,4,0,0,1,3.38-1.35,3.6,3.6,0,0,0-3.58,1.15c-2.57,2.45-3.23,2.57-3.23,2.57s1,.1,3.43-2.37M98,12.48a4.71,4.71,0,0,1,3.68-1.18,4,4,0,0,0-3.65,1c-3,2.35-4.43,3.7-9.87,4.56A5.28,5.28,0,0,0,84.83,19a5.63,5.63,0,0,1,3.38-2c5.44-.86,6.81-2.14,9.78-4.5m-8.41,6.68s0,0,.33-.24-.08-.45-.27-.22-.31.5-.05.46m2.07-1.89s-.49.46-4,.5c-2.59,0-3.07,3.28-3.07,3.28s.73-3,3.1-3c3.53-.06,4-.74,4-.74m-5.61,3.24a2.16,2.16,0,0,1,.26-.33c.14-.14-.08-.18-.08-.18a2.33,2.33,0,0,0-.42.54.16.16,0,0,0,.24,0m0,1.38s.49.25.81-.4c0-.19-.14-.15-.14-.15a.75.75,0,0,1-.6.3.19.19,0,0,0-.07.25m.51-2.43a1.85,1.85,0,0,1,.35-.2,1.94,1.94,0,0,1,.34-.1c.14,0,.06-.16.06-.16a3,3,0,0,0-.53.15,1.94,1.94,0,0,0-.43.27.13.13,0,0,0,.21,0m0,.35-.11.08s.11.14.24.06a1.39,1.39,0,0,1,.6-.14c.23,0,.13-.22.13-.22a2.1,2.1,0,0,0-.86.22m.46,2.32a1.45,1.45,0,0,1-1,.78,1.73,1.73,0,0,0,.76-.68c.12-.17,0-.25,0-.25a1.61,1.61,0,0,1-.94,1l-.11,0A1.52,1.52,0,0,0,87,22.38c.12-.16,0-.24,0-.24M86.57,19a3,3,0,0,1,1.32-.27l0-.18a3,3,0,0,0-1.45.32,2.85,2.85,0,0,0-.95,1.22A3.23,3.23,0,0,1,86.57,19M88,21.39a3.92,3.92,0,0,1-1.12,1.51,3.46,3.46,0,0,1-1.86.57s.05.1.26.13A2.12,2.12,0,0,0,86.94,23,4,4,0,0,0,88,21.58a.22.22,0,0,0,0-.19M84.8,24.74c0,.06.31.05.31.05a2.17,2.17,0,0,0,1.21-.26,4.34,4.34,0,0,0,1.15-.93,3.77,3.77,0,0,1-1.23.82,5.33,5.33,0,0,1-1.53.24.16.16,0,0,1,.1.08M84.51,24c0,.09.29.1.29.1a3.07,3.07,0,0,0,1.77-.25,3.8,3.8,0,0,0,1.28-1.22c.09-.14,0-.2,0-.2a4.16,4.16,0,0,1-1.41,1.31,4.24,4.24,0,0,1-2,.19s0,0,.07.07m-.63-4.59c.1-.34.63-1.7,3.09-2.86,1.22-.58,3.35-1.39,5.54-2.4,3.73-1.72,7.7-3.71,8.07-3.83.58-.18,2-.2,2.43.34a2.52,2.52,0,0,0-2.76-.5c-.7.28-4.47,2.1-7.92,3.71-3.05,1.43-5.83,2.69-6.1,2.8a4.22,4.22,0,0,0-2.34,2.73l0,.08,0-.08"/><path class="cls-5" d="M101,24.21s0-1.07,1.07-.53c-.56.09-.87.09-.85.74s.84,14.11.82,14.77a.77.77,0,0,1-.46.74h-.31Zm1.92.49s0-1.26.81-.52c-.52-.13-.61.25-.61.51s1.18,14.13.9,14.85a.65.65,0,0,1-.36.38h-.32Zm1.7.76.18,0s1.31,13.36,1.1,14a.75.75,0,0,1-.49.48h-.18Zm-4.42-2.08a1,1,0,0,1,0,.34S99,23.5,99,23.94s.55,15.29.54,15.54a.41.41,0,0,1-.32.44H99l-.23-16.24s.29-.89,1.34-.29m5.7,2.62.2,0s1.18,13,.94,13.49a.88.88,0,0,1-.55.45h0Z"/><path class="cls-6" d="M101,24.21s0-1.07,1.07-.53c-.56.09-.87.09-.85.74s.6,14,.57,14.68a1,1,0,0,1-.36.83h-.16Zm1.92.49s0-1.26.81-.52c-.52-.13-.61.25-.61.51s.86,13.84.59,14.56a3.9,3.9,0,0,1-.33.67h0Zm1.7.76.18,0s1,13.09.8,13.69a3.51,3.51,0,0,1-.35.75h0Zm-4.42-2.08a1,1,0,0,1,0,.34S99,23.5,99,23.94s.3,15.09.3,15.34a.85.85,0,0,1-.23.63h0l-.23-16.24s.29-.89,1.34-.29m5.7,2.62.2,0s1,12.67.72,13.18c-.15.34-.33.7-.36.76h0Z"/><path class="cls-7" d="M106.16,27.54c.08-.9.42-1.23.43-.62,0,.2.08,1.64.18,3.5a1.14,1.14,0,0,1-.69-.12,7,7,0,0,1-.12-1.92,3.56,3.56,0,0,1-1-.14c-.39-.15-.25-1.68-.37-1.69a3,3,0,0,1-1.41,0c-.35-.17-.36-1.45-.36-1.45s.53,0-.47,0c-1.48,0-1.25-1-1.35-1.35s-.61-.51-1-.79-.82-.43-.94-.71-.23-.46-.49-.46-.31-.33-.33-.64-.46-1-.51-1.3-.12-1-.12-1l.27.11.08,0c.58.36.66.6.73.78a.54.54,0,0,1-.08.65c.15.06.09.54.09.81s.39-.1.38.4c0,.11,0,.29,0,.29a1.34,1.34,0,0,0,.89.58c.47,0,1.31,0,1.31,0s.88,0,.86.49.06.61.06.61a4.48,4.48,0,0,0,1,.05c.54,0,.88,0,1,.61.29-.09.47.29.47.56a3.68,3.68,0,0,1,0,.48s-.17,1,.57.11c.49-.57.77.53.74.91s.16,2.35.27,1.25M98.5,19.16a2.24,2.24,0,0,1-.58-.21l-.06,0,.64.25"/><path class="cls-8" d="M98.23,19.18c.59.36.44.28.51.47s.37.47.13.66c.16.06-.18.55-.18.82s.44-.09.42.41a.85.85,0,0,1,0,.24,1.32,1.32,0,0,0,.88.58c.47,0,1.3,0,1.3,0s1,0,1,.52a2.6,2.6,0,0,0,0,.64,4.43,4.43,0,0,0,.87,0c.53,0,1,0,1.06.61.29-.09.46.33.46.6s0,.45,0,.45,0,.44.49.08.58.18.68.61c-.23-.22-.56-.4-.72-.24s-.74.36-.77,0a4.11,4.11,0,0,0-.15-1.19c-.13-.26-1.22-.23-1.66-.49s-1.38-.1-1.38-.38-1.35-.74-1.76-1-.48-.56-1-1.35A6.88,6.88,0,0,1,97.63,19s.37.08.31,0"/><path class="cls-9" d="M106.38,39.92,105.85,26l.2,0,.5,13.95ZM98.3,22.25c-.43-.13.35-.18,1.2,0a3.84,3.84,0,0,1-1.2,0M96.67,39.92l.06-6.19.15,6.19Zm-2,0,.08-1.4,0,1.4Zm-.5-16.35c.45,0,2.37-.64,2.65-.63s.56-.16,1-.07,1-.16,1.37-.16a8,8,0,0,0,1.47-.33.52.52,0,0,1-.49.36c-.38,0-1,.21-1.17.15s-.72.21-1,.12-.28,0-1.11.09a7.52,7.52,0,0,0-2,.66,2,2,0,0,0-1.35.18,11.1,11.1,0,0,0-2.56,2.22.44.44,0,0,0-.19-.12c2.29-2.41,3-2.43,3.45-2.45M99,39.92l-.16-16.24s.29-.89,1.34-.29a1,1,0,0,1,0,.34S99,23.5,99,23.94s.14,13.83.17,16Zm2.38,0h-.19L101,24.21s0-1.07,1.07-.53c-.56.09-.87.09-.85.74s.15,13.64.17,15.51m1.94,0-.42-15.22s0-1.26.82-.52c-.52-.13-.61.25-.61.51s.32,13.25.37,15.23Zm2,0h-.15l-.55-14.46.18,0Z"/><path class="cls-10" d="M106.09,27.79s-.35-1.55.44-1.36c-.17.5-.32.94-.44,1.36m-1.2-1.12s-.34-1.91.89-1.24a1.46,1.46,0,0,0-.89,1.24M103,25.75s-.21-1.58.39-1.67a.73.73,0,0,1,.85.7,1.41,1.41,0,0,0-1.23,1m-1.88-1.21a1.06,1.06,0,0,1,.1-.84c.37-.59,1.15-.13,1.37.27a1.82,1.82,0,0,0-1.47.57"/><path class="cls-11" d="M110.8,25.55a1.4,1.4,0,0,0,.27-.71s.92-.36,1.93-.8c-.18.65-2.41,1.7-2.2,1.52M109,19.86a2.61,2.61,0,0,0-.1-.85c.53-.29.19.78.1.85m-1.15-1.4c-.28.17-.25-.48-.16-.82a1.3,1.3,0,0,0-.13-.77c0-.12.06-.18.33-.11s.4.77.33.94,0,.57-.37.77m-1.48-.87a5.07,5.07,0,0,1-.12-1.77,1,1,0,0,0-.36-.73l-.2-.14c0,.23,0,.45,0,.59.06.74-.68,2-.54.36a3.09,3.09,0,0,0-.48-1.85c-.16-.1-.44-.88.4-.59.49.18.6.69.62,1.19l.31,0c1.09.1,1,1.19,1,1.83s-.45,1.28-.6,1.09"/><path class="cls-12" d="M117,1V39H78.12V1H117m1-1H77.12V40H118V0Z"/><path class="cls-12" d="M41.61,13.9V7.78h.83v5.33h3v.78Z"/><path class="cls-12" d="M48.25,14a2.16,2.16,0,0,1-2.16-2.39,2.2,2.2,0,0,1,2.21-2.4,2.16,2.16,0,0,1,2.15,2.4A2.2,2.2,0,0,1,48.25,14Zm0-4.06c-.89,0-1.38.69-1.38,1.66s.52,1.67,1.4,1.67,1.38-.68,1.38-1.65S49.14,10,48.26,10Z"/><path class="cls-12" d="M54.14,13.9V11.08c0-.77-.29-1-.93-1a1.8,1.8,0,0,0-1.17.49V13.9h-.8V9.39l.8-.13v.68a2.13,2.13,0,0,1,1.46-.68,1.38,1.38,0,0,1,1.45,1.55V13.9Z"/><path class="cls-12" d="M59,7.3l.8-.13V13.9H59v-.41a1.8,1.8,0,0,1-1.25.56c-1.26,0-2-1-2-2.37A2.28,2.28,0,0,1,58,9.27a3.49,3.49,0,0,1,1,.15ZM58,10a1.48,1.48,0,0,0-1.42,1.66c0,1,.5,1.64,1.33,1.64A1.63,1.63,0,0,0,59,12.87V10.31A1.55,1.55,0,0,0,58,10Z"/><path class="cls-12" d="M62.83,14a2.16,2.16,0,0,1-2.16-2.39,2.2,2.2,0,0,1,2.21-2.4A2.16,2.16,0,0,1,65,11.66,2.2,2.2,0,0,1,62.83,14Zm0-4.06c-.89,0-1.38.69-1.38,1.66s.52,1.67,1.4,1.67,1.38-.68,1.38-1.65S63.72,10,62.84,10Z"/><path class="cls-12" d="M68.79,13.9V11.08c0-.77-.29-1-.93-1a1.8,1.8,0,0,0-1.17.49V13.9h-.8V9.39l.8-.13v.68a2.13,2.13,0,0,1,1.46-.68,1.38,1.38,0,0,1,1.45,1.55V13.9Z"/><path class="cls-12" d="M4,21.68c0-.63-.47-.86-1.47-1.13S.71,19.95.71,18.76a1.81,1.81,0,0,1,2-1.72,3.58,3.58,0,0,1,1.93.54l-.29.72a3.06,3.06,0,0,0-1.62-.51c-.88,0-1.24.4-1.24.91S2,19.53,3,19.8s1.8.67,1.8,1.82a1.93,1.93,0,0,1-2.15,1.83,3.91,3.91,0,0,1-2-.58l.27-.75a3.14,3.14,0,0,0,1.79.59C3.46,22.71,4,22.28,4,21.68Z"/><path class="cls-12" d="M7.8,23.4A2.13,2.13,0,0,1,5.6,21a2.22,2.22,0,0,1,2.26-2.39A2.64,2.64,0,0,1,9.31,19l-.21.73a2.16,2.16,0,0,0-1.24-.37c-.92,0-1.43.63-1.43,1.63S7,22.66,7.84,22.66a2.32,2.32,0,0,0,1.29-.37l.15.74A2.83,2.83,0,0,1,7.8,23.4Z"/><path class="cls-12" d="M12.88,23.3V20.48c0-.77-.29-1-.88-1a1.83,1.83,0,0,0-1.22.49V23.3H10v-6.6l.8-.13v2.75a2.13,2.13,0,0,1,1.51-.66,1.37,1.37,0,0,1,1.4,1.55V23.3Z"/><path class="cls-12" d="M16.51,23.45a2.16,2.16,0,0,1-2.16-2.39,2.2,2.2,0,0,1,2.21-2.4,2.16,2.16,0,0,1,2.15,2.4A2.2,2.2,0,0,1,16.51,23.45Zm0-4.06c-.89,0-1.38.69-1.38,1.66s.52,1.67,1.4,1.67,1.38-.68,1.38-1.65S17.4,19.39,16.52,19.39Z"/><path class="cls-12" d="M21.59,23.45a2.16,2.16,0,0,1-2.16-2.39,2.2,2.2,0,0,1,2.21-2.4,2.16,2.16,0,0,1,2.15,2.4A2.2,2.2,0,0,1,21.59,23.45Zm0-4.06c-.89,0-1.38.69-1.38,1.66s.52,1.67,1.4,1.67S23,22,23,21.07,22.48,19.39,21.6,19.39Z"/><path class="cls-12" d="M24.59,23.3v-6.6l.8-.13V23.3Z"/><path class="cls-12" d="M30.12,23.45A2.16,2.16,0,0,1,28,21.06a2.2,2.2,0,0,1,2.21-2.4,2.16,2.16,0,0,1,2.15,2.4A2.2,2.2,0,0,1,30.12,23.45Zm0-4.06c-.89,0-1.38.69-1.38,1.66s.52,1.67,1.4,1.67,1.38-.68,1.38-1.65S31,19.39,30.13,19.39Z"/><path class="cls-12" d="M35.38,17.44a2,2,0,0,0-.72-.2c-.45,0-.67.27-.67.95v.63h1.42l0,.72H34V23.3h-.8V19.55l-.78-.06,0-.51.73-.22V18.2c0-1.25.6-1.71,1.48-1.71a2.36,2.36,0,0,1,.9.22S35.38,17.46,35.38,17.44Z"/><path class="cls-12" d="M42,21.81c0,1-.7,1.73-2.27,1.73H37.61V17.43h2c1.48,0,2.13.67,2.13,1.63a1.4,1.4,0,0,1-1,1.34A1.45,1.45,0,0,1,42,21.81Zm-2.26-3.62H38.45v1.92h1.13c.88,0,1.36-.39,1.36-1S40.51,18.19,39.71,18.19Zm-.06,2.67h-1.2v1.92h1.33c.91,0,1.36-.32,1.36-1S40.51,20.86,39.65,20.86Z"/><path class="cls-12" d="M43.74,18.77v2.82c0,.77.29,1,.88,1a1.83,1.83,0,0,0,1.22-.49V18.77h.8v4.5l-.8.13v-.66a2.13,2.13,0,0,1-1.51.66,1.37,1.37,0,0,1-1.4-1.55V18.77Z"/><path class="cls-12" d="M49.12,23.41A3.18,3.18,0,0,1,47.55,23l.2-.74a2.63,2.63,0,0,0,1.38.42c.51,0,.89-.24.89-.64s-.53-.6-1.06-.74-1.33-.49-1.33-1.31a1.44,1.44,0,0,1,1.6-1.36,3.32,3.32,0,0,1,1.45.33l-.21.73a3,3,0,0,0-1.28-.33c-.48,0-.79.2-.79.56s.48.58,1,.73,1.36.49,1.36,1.34A1.51,1.51,0,0,1,49.12,23.41Z"/><path class="cls-12" d="M56.48,23.25V20.44c0-.77-.29-1-.93-1a1.81,1.81,0,0,0-1.17.49v3.37h-.8v-4.5l.8-.13v.68a2.13,2.13,0,0,1,1.46-.68,1.38,1.38,0,0,1,1.45,1.55v3.08Z"/><path class="cls-12" d="M58.77,21.15a1.45,1.45,0,0,0,1.48,1.51,2.49,2.49,0,0,0,1.34-.37l.15.74a2.94,2.94,0,0,1-1.51.37A2.2,2.2,0,0,1,58,21.06a2.25,2.25,0,0,1,2.21-2.44,1.6,1.6,0,0,1,1.71,1.75,2.67,2.67,0,0,1-.1.72l-3,0Zm2.34-.65v-.07c0-.67-.31-1.11-1-1.11a1.3,1.3,0,0,0-1.28,1.19Z"/><path class="cls-12" d="M64,23.41A3.18,3.18,0,0,1,62.46,23l.21-.74a2.62,2.62,0,0,0,1.38.42c.51,0,.89-.24.89-.64s-.53-.6-1.06-.74-1.33-.49-1.33-1.31a1.44,1.44,0,0,1,1.61-1.36A3.32,3.32,0,0,1,65.6,19l-.2.73a3,3,0,0,0-1.28-.33c-.48,0-.79.2-.79.56s.48.58,1,.73,1.36.49,1.36,1.34A1.51,1.51,0,0,1,64,23.41Z"/><path class="cls-12" d="M67.9,23.41A3.18,3.18,0,0,1,66.34,23l.21-.74a2.63,2.63,0,0,0,1.38.42c.51,0,.89-.24.89-.64s-.53-.6-1.06-.74-1.33-.49-1.33-1.31A1.44,1.44,0,0,1,68,18.62a3.33,3.33,0,0,1,1.45.33l-.21.73A3,3,0,0,0,68,19.36c-.48,0-.79.2-.79.56s.48.58,1,.73,1.36.49,1.36,1.34A1.51,1.51,0,0,1,67.9,23.41Z"/><path class="cls-12" d="M41.84,26.56h3.78v.78H42.68v2h2.44v.77H42.68v2.57h-.83Z"/><path class="cls-12" d="M51.28,32.68V29.86c0-.77-.29-1-.93-1a1.8,1.8,0,0,0-1.17.49v3.37h-.8v-4.5l.8-.13v.68a2.14,2.14,0,0,1,1.46-.68,1.38,1.38,0,0,1,1.45,1.55v3.08Z"/><path class="cls-12" d="M55.45,32.2a1.6,1.6,0,0,1-1.23.63,1.32,1.32,0,0,1-1.43-1.28c0-.8.58-1.51,2.67-1.61v-.13c0-.72-.28-1-1-1a2.83,2.83,0,0,0-1.45.5l-.16-.72a3.15,3.15,0,0,1,1.68-.52c1.21,0,1.75.52,1.73,1.74v1.88c0,.37,0,.44.44.44l0,.67c-.73.06-1-.2-1.16-.59Zm0-1.75c-1.33.18-1.82.45-1.82,1a.71.71,0,0,0,.79.69,1.42,1.42,0,0,0,1-.48Z"/><path class="cls-12" d="M60.21,32.68V29.86c0-.77-.29-1-.93-1a1.8,1.8,0,0,0-1.17.49v3.37h-.8v-4.5l.8-.13v.68a2.14,2.14,0,0,1,1.46-.68A1.38,1.38,0,0,1,61,29.6v3.08Z"/><path class="cls-12" d="M63.72,32.83a2.13,2.13,0,0,1-2.2-2.39,2.22,2.22,0,0,1,2.26-2.39,2.64,2.64,0,0,1,1.45.38l-.21.73a2.16,2.16,0,0,0-1.24-.37c-.92,0-1.43.63-1.43,1.63s.57,1.65,1.41,1.65A2.33,2.33,0,0,0,65,31.71l.15.74A2.83,2.83,0,0,1,63.72,32.83Z"/><path class="cls-12" d="M66.47,30.58A1.45,1.45,0,0,0,68,32.08a2.49,2.49,0,0,0,1.34-.37l.15.74a2.94,2.94,0,0,1-1.51.37,2.2,2.2,0,0,1-2.27-2.34,2.25,2.25,0,0,1,2.21-2.44,1.6,1.6,0,0,1,1.71,1.75,2.69,2.69,0,0,1-.1.71l-3,0Zm2.34-.65v-.07c0-.67-.31-1.11-1-1.11A1.3,1.3,0,0,0,66.51,30Z"/><path class="cls-4" d="M37.2,32.35a3.42,3.42,0,0,1-1.52.31,1.82,1.82,0,0,1-1.41-.54,2.17,2.17,0,0,1-.5-1.52,2.32,2.32,0,0,1,.15-.88,2.42,2.42,0,0,1,.55-.77,1.79,1.79,0,0,1-.61-1.27,1.52,1.52,0,0,1,.5-1.14,1.9,1.9,0,0,1,1.35-.47,2.14,2.14,0,0,1,1.39.4l-.36.67a1.45,1.45,0,0,0-.89-.42c-.77,0-1.16.35-1.16,1a1.18,1.18,0,0,0,.51,1h1.62v-.8l.83-.32v1.13h1.09v.7H37.64v1.44a1.46,1.46,0,0,0,.16.82.65.65,0,0,0,.56.22,1.28,1.28,0,0,0,.55-.16l.12.77a3.91,3.91,0,0,1-1,.13,1.23,1.23,0,0,1-.79-.31m-.39-1.15V29.44H35.05a1.8,1.8,0,0,0-.41,1.12A1.19,1.19,0,0,0,36,31.92a1.53,1.53,0,0,0,.89-.21,2.24,2.24,0,0,1,0-.51"/><path class="cls-12" d="M51.64,23.35V19.41l.8-.11v4Z"/><circle class="cls-12" cx="52.09" cy="18.16" r="0.48"/><path class="cls-12" d="M46.45,32.68V28.74l.8-.11v4Z"/><circle class="cls-12" cx="46.89" cy="27.5" r="0.48"/></svg>