<?xml version="1.0" encoding="UTF-8"?>
<svg id="logo" xmlns="http://www.w3.org/2000/svg" viewBox="0 0 110 40"><defs><style>.cls-1{fill:#d7182a;}.cls-2{fill:#002857;}</style></defs><title>brand-brunel-university</title><rect class="cls-1" x="108.66" y="1.17" width="1.34" height="37.63"/><rect class="cls-1" y="1.17" width="0.41" height="11.23"/><rect class="cls-1" x="36.44" y="1.17" width="0.87" height="24.42"/><path class="cls-2" d="M19.69,8.37A4.13,4.13,0,0,0,20,6.93a1.6,1.6,0,0,1,.51-1.21c.11-.08.25-.19.41-.29.92-.6,1.08-1.08,1-1.11a8,8,0,0,1-1.18,1,2.66,2.66,0,0,0-.43.31c-.4.33-.47.62-.55,1.29a6,6,0,0,1-.3,1.38c-.07.18-.15.24-.1.27a.34.34,0,0,0,.31-.19"/><path class="cls-2" d="M8.87,10.17c.2,0,.14.08.06.13-1,.58-1.13.95-1.08,1.28s.59.47.92.27c.1-.1.18-.22.27-.33a2.88,2.88,0,0,1,1.65-1.23c1.41-.28,2,.42,2,.7,0,.11.12-.55-.54-1a6.31,6.31,0,0,0-1.52-.77,3.7,3.7,0,0,0-1.19-.27A1.25,1.25,0,0,0,9.11,9a2.76,2.76,0,0,0-1,.62A3.25,3.25,0,0,1,7.5,10a3.77,3.77,0,0,0,1.37.14"/><path class="cls-2" d="M7.63,12.33A1.28,1.28,0,0,0,8,12.28s-.56,0-.61-.75a.94.94,0,0,1,.5-.89l.29-.22H7.86A2.3,2.3,0,0,1,7,10.22a2.21,2.21,0,0,1-.81-.68l-.09-.16L6,9.53a2,2,0,0,0-.18,2.09,3.39,3.39,0,0,0,1.81.71"/><path class="cls-2" d="M5.38,18.9a.74.74,0,0,1,.61.28.63.63,0,0,1,.2.52c0,.23-.36.47-.36.47a.78.78,0,0,0,.54.21,1,1,0,0,0,.85-.5,1.84,1.84,0,0,0,1.44.6A2.68,2.68,0,0,0,10,20.16s-.78,0-1.67-1.29a2.64,2.64,0,0,0-.68-.79,1.65,1.65,0,0,0,.6-2,1.86,1.86,0,0,0-.16-.27A1.92,1.92,0,0,1,8,16c0,.11-.15.47-1,.66s-1.1.43-1.18.65l-.29,0a1.81,1.81,0,0,0-1.89,1.24A3.12,3.12,0,0,0,4,20.94a2.2,2.2,0,0,1,.33-1.56,1.24,1.24,0,0,1,1.08-.48"/><path class="cls-2" d="M23.65,10.75c-.36.79-.28,1.8,1,2.72a3.6,3.6,0,0,1,1,.95h-.17a1.73,1.73,0,0,0-1,.32,1.49,1.49,0,0,0-.64,1.51,1.13,1.13,0,0,0,.08.26s.59-1.27,1.49-.64a2.06,2.06,0,0,1,.34,2.57,2.23,2.23,0,0,1-1.8.83,1.1,1.1,0,0,0,.78.43,1.72,1.72,0,0,0,.33,0h.23a3.26,3.26,0,0,0,2.1-.87l.21-.28a4,4,0,0,1,.44-.65,1.71,1.71,0,0,1-.35-2.11,2.54,2.54,0,0,1,.47-.68l.08-.07,0,.1a2.06,2.06,0,0,0,.2.54l0,0a.77.77,0,0,0,.54.4,1.33,1.33,0,0,0,.13-.6c.09-1.87,1-2,1-2a1.11,1.11,0,0,0-.65-.19,2.19,2.19,0,0,0-1.74,1.11,3.07,3.07,0,0,0-1.08-1.6,3,3,0,0,1-1.23-2.35,1.34,1.34,0,0,1,1.06-1.2,1.21,1.21,0,0,0-.76,0c-.3.09-1.85.75-2.21,1.53"/><path class="cls-2" d="M26,10.94a3,3,0,0,1,.53.54l.1.12a2.09,2.09,0,0,0,1.65,1h0a1.86,1.86,0,0,0,1.29-.5,1.52,1.52,0,0,0,.33-.39.7.7,0,0,1-.38,0c-.49-.05-1-.78-1.44-1.36a3.94,3.94,0,0,0-.67-.74A1.08,1.08,0,0,0,26,10.94"/><path class="cls-2" d="M29.56,11.31h.12a.77.77,0,0,0,.37-.11A2,2,0,0,0,30,9.85a1.56,1.56,0,0,0-.16-.34l-.13.15a2.42,2.42,0,0,1-1.28.58c.47.64.86,1,1.13,1.07"/><path class="cls-2" d="M25.23,16a1.09,1.09,0,0,0-1,.87,1.6,1.6,0,0,0,1.19.5l-.18-.21a.85.85,0,0,1-.17-.94.73.73,0,0,1,.16-.22"/><path class="cls-2" d="M30.89,19.07a.85.85,0,0,1,.2,1.12c-.53.82-1.56.91-2.83.91a9.92,9.92,0,0,1-1.6-.18,4.82,4.82,0,0,1-2.33-1.07,3,3,0,0,1-.76-.89,2.09,2.09,0,0,0,2.08-.84,1.23,1.23,0,0,0,.17-.54,1.49,1.49,0,0,1-1.28.55,4.12,4.12,0,0,1-2.41-1,3,3,0,0,0,0-.31,1.31,1.31,0,0,0-.45-1.13,5.62,5.62,0,0,0-.59-.36.35.35,0,0,0-.27,0s0-.09-.16-.18a8.31,8.31,0,0,0-.81-.29h.06s.11,0,.14,0a.63.63,0,0,0,0-.33c0-.05,0-.09,0-.14,0-.21-.08-.53-.09-.63a1.19,1.19,0,0,0,.51.15l.11,0h0l0-.05a.51.51,0,0,1-.14-.15l0,0a1.3,1.3,0,0,1-.21-.54,1.85,1.85,0,0,0,0-.23v0l0,0a2.68,2.68,0,0,0,1.23.35,1.3,1.3,0,0,0,1.33-.27,1,1,0,0,0-.09-1.28.75.75,0,0,0-.42-.24h0l0,0a.63.63,0,0,1,.06.2.35.35,0,0,1-.11.3.28.28,0,0,1-.22.11c-.06,0-.05,0-.11,0l-.18-.17,0,0a.53.53,0,0,0,.29-.33h0s0,0-.07,0a1.17,1.17,0,0,1-.72-.34h0a.32.32,0,0,0,.1-.18h0c-.3-.07-.43-.42-.58-.56l0,0-.1-.08-.17-.12h0l0,0a3.27,3.27,0,0,0,1.76-2.19v0h0a4.62,4.62,0,0,0,1.5-1.31c.05-.08.13-.26.1-.31a.12.12,0,0,0-.09,0H23.5l0,0A1.49,1.49,0,0,0,24,5.2C24,5.11,24,5,23.9,5h0l-.05,0a.48.48,0,0,1-.15.11l-.06,0,0,0A1.6,1.6,0,0,0,24,3.8c0-.25-.12-.36-.17-.36s0,0,0,0a1,1,0,0,1-.06.16h0a1.69,1.69,0,0,0-.07-1.38c-.05-.1-.2-.29-.27-.29s0,0,0,0a1.72,1.72,0,0,1-.2.69h0A1.88,1.88,0,0,0,22.23.83.37.37,0,0,0,22,.77a.12.12,0,0,0-.09,0s0,0,0,.13a2,2,0,0,1,.09,1.7v0l0,0a.6.6,0,0,0-.09-.13.49.49,0,0,0-.25-.17.05.05,0,0,0-.05,0h0A2.24,2.24,0,0,1,20.89,4l0,0V4c0-.1,0-.17-.06-.2h0l-.08,0,0,0v0c.23-.79.08-1.65-.14-1.74h0s-.09.08-.16.22h0A2.27,2.27,0,0,0,19.82.73a.27.27,0,0,0-.16-.06s-.05,0-.06,0a0,0,0,0,0,0,0,1.35,1.35,0,0,1,0,.68h0A1.71,1.71,0,0,0,18.24,0L18,0c-.11,0-.16,0-.16.06h0a3.31,3.31,0,0,1,.69,1.17v0l-.08,0-.2-.05s0,0,0,0,0,0,0,0a2,2,0,0,1,.21,1.2,5.93,5.93,0,0,1-.19.59,1.36,1.36,0,0,0-.07.22,2.33,2.33,0,0,0-.1.44v0l0,0a1.56,1.56,0,0,0-.66-.45,2.31,2.31,0,0,0-.8-.15,2.23,2.23,0,0,0-1,.24l-.45.25c-.8.22-1.05.54-1.13.69-.46,0-.76.46-.4.61a.23.23,0,0,1-.07.11,1.06,1.06,0,0,1-.4.25c-.29.11-.39.29-.37.43a.21.21,0,0,0,.1.13s.08-.13.35-.19a4.49,4.49,0,0,0,.55-.13s0,0,.15,0a1.57,1.57,0,0,1-.24.36c-.32.27-.34.39-.35.4s0,.14.06.13h0a2.28,2.28,0,0,0,.85-.45l.19-.13.31-.24h.1a1.3,1.3,0,0,0,.93-.79l0-.06a.81.81,0,0,1,.45-.37.91.91,0,0,1,.31,0,.78.78,0,0,1,.34.07.74.74,0,0,1,.34.44,1.93,1.93,0,0,1-.6,1.7h0l.08-.5-.09,0A3.82,3.82,0,0,0,16,5.79l-.12,0,0,.71,0,.73a1.25,1.25,0,0,0-.2.17,2.45,2.45,0,0,0-.77,1.43V8.9a1.61,1.61,0,0,1-.3.78s0,0,0,.05a.31.31,0,0,0,.28.12.54.54,0,0,0,.18,0h0v0a2.24,2.24,0,0,0,1.48,1.52h0l.05.05a3.35,3.35,0,0,0,1.1.63,1.2,1.2,0,0,1-.37.37v0a.81.81,0,0,0,.48.13l0,0c0,.1-.09.22-.19.22a.81.81,0,0,1-.5-.32c-.1-.1-.15-.24-.29-.41s-.21-.25-.33-.28c-.4-.13-.55,0-.55,0a.6.6,0,0,0-.4,0s-.05.05,0,.06a1.14,1.14,0,0,1,.33.06.58.58,0,0,1,.41.07s.06.08,0,.08h-.06a.35.35,0,0,0-.33,0h0l.05,0h0l.28.07c.13,0,.21.07.49.38.14.15.18.27.39.38l.08,0,.14.05c.2.09.41.21.41.21s.25.12.32,0a.69.69,0,0,0,.1-.27,1.36,1.36,0,0,1,0-.2l.06-.05s.17.34.47.31a1.15,1.15,0,0,1,0-.53,2.26,2.26,0,0,1,.16.21,1.08,1.08,0,0,1,.22.64v0a.35.35,0,0,0,0,.06c0,.06,0,.13,0,.15h0s.07,0,.12-.08l0,0,.12-.11a1.79,1.79,0,0,1,.1.48c0,.21,0,.23,0,.28a.09.09,0,0,1-.07.06,1.25,1.25,0,0,1-.61-.09l-.21-.08a1,1,0,0,0-.33,0,.55.55,0,0,0-.38.13l0,0c-.24.05-.25.17-.25.22h0s0,0,0,0h0a.49.49,0,0,1,.17-.06h.35c.17,0,.24,0,.21,0a.31.31,0,0,0-.09.06c-.17,0-.21.09-.22.11v0h-.2a.21.21,0,0,0-.15.14.25.25,0,0,0-.23-.1,6,6,0,0,0-1.14.26c-.15.06-.13.17-.13.17a.25.25,0,0,0-.16,0L16,14.78l.16-.16.34.1.14-.22-.24-.25A1.87,1.87,0,0,0,16.5,14l.33-.08a.62.62,0,0,0,0-.13v-.14l-.33-.1a1.74,1.74,0,0,0-.05-.22l.25-.24a2.53,2.53,0,0,0-.12-.23l-.34.08a1.29,1.29,0,0,0-.16-.17l.1-.33a1.64,1.64,0,0,0-.22-.14l-.25.24-.22-.07-.08-.33h-.27l-.1.33a.87.87,0,0,0-.22,0l-.24-.25a1,1,0,0,0-.23.12l.08.34a1.22,1.22,0,0,0-.17.15l-.33-.1a1.76,1.76,0,0,0-.14.23l.24.25a1.42,1.42,0,0,0-.07.22l-.34.08s0,.09,0,.13v.13l.34.1a1,1,0,0,0,0,.23l-.25.23a1,1,0,0,0,.12.23l.34-.07a1.14,1.14,0,0,0,.15.16l-.1.33a1.09,1.09,0,0,0,.23.14l.25-.23A.79.79,0,0,0,15,15l.08.34h.26l.1-.33.23,0,.16.18c-.27.12-.49.24-.65.33a.28.28,0,0,0-.12.21.22.22,0,0,0-.21,0,1.23,1.23,0,0,0-.43,1l-.67.3a8.1,8.1,0,0,1-2.28.83c-.95.12-1.24-.24-1.34-.42s0-.1,0-.16a1.29,1.29,0,0,1,.49-1.41,1,1,0,0,1,.39-.08.81.81,0,0,1,.8.46,1,1,0,0,1,.12.42.85.85,0,0,0,.1-.38,1.76,1.76,0,0,0-1.67-1.81,4.85,4.85,0,0,1,1.29-1.26,2.87,2.87,0,0,0,1.06-1.41,1.15,1.15,0,0,0-.74-1.06,1.66,1.66,0,0,0-1.54.17c0,.55-.34,1-1.19,1.94a4.75,4.75,0,0,0-1,1.69,2.06,2.06,0,0,0-1.93-1.22,1.55,1.55,0,0,0-.7.12s.92.06,1,1.78a2.3,2.3,0,0,0,.35,1.21H7c.8,0,1-1.1,1-1.1l0-.11.07.08a2.51,2.51,0,0,1,.48.67,1.79,1.79,0,0,1-.34,2.16,4,4,0,0,1,.48.64,4,4,0,0,0,.27.37,3,3,0,0,0,1.89.6,4.68,4.68,0,0,0,1-.1,5.16,5.16,0,0,1-3.65,1.7c-2.92.21-3.08-1.2-3-1.62a1.25,1.25,0,0,1,.11-.47.81.81,0,0,0-.64.33,1.52,1.52,0,0,0,.54,2.25,4,4,0,0,0,.6.19,2.71,2.71,0,0,0-1,1.83l0,.4.26-.31a2.55,2.55,0,0,1,1.53-.78,4.91,4.91,0,0,0,1.72-.59,8.5,8.5,0,0,1-1.25.9l-.6.39h0A2.17,2.17,0,0,0,5.73,26a1.51,1.51,0,0,0,.32.55c.32-1.19,2.2-2.21,2.82-2.52a2.28,2.28,0,0,0,.32,1.5c.37.48,1.16.26,1.16.26s-.65-.34-.33-1.43a3.15,3.15,0,0,1,.51-1c0,4.12.25,6.3.8,8.11a6,6,0,0,0-3.08-2.63,3.73,3.73,0,0,0,.66-.21,1.89,1.89,0,0,1,.79-.22.94.94,0,0,1,.78.66A2.1,2.1,0,0,0,10,27.53a1.72,1.72,0,0,0-1.28-.47H8.61a1.29,1.29,0,0,0-.1-.79,1.44,1.44,0,0,0-1-.69l-.32-.09.18.28a1,1,0,0,1,.14.77.81.81,0,0,1-.67.53,1.36,1.36,0,0,1-1.38-.57,2.07,2.07,0,0,1-.24-1.74,2.35,2.35,0,0,1,.22-.51S4,24.94,4.87,29c.69,3.22-.09,4.51-.14,4.61a2,2,0,0,1-.15.19h.25a2.13,2.13,0,0,0,1.5-.63,1.84,1.84,0,0,0,.38-1.41,1.93,1.93,0,0,1,1.06,1.11,1,1,0,0,1,.05.29A.91.91,0,0,0,8,32.93a2.46,2.46,0,0,0-.22-2.43c.87.24,3.3,1.12,3.84,3.09,0,0,.05.15.05,0a5.56,5.56,0,0,0,0-1.24,12.85,12.85,0,0,0,.68,1.6c1.4,3.09,4.85,5.5,5.54,6L18,40l.12-.07c.72-.49,4.21-3,5.53-6,.25-.51.46-1,.65-1.49a5.47,5.47,0,0,0,0,1.23c0,.14.05,0,.05,0,.55-2,3-2.85,3.84-3.08A2.4,2.4,0,0,0,27.91,33a.79.79,0,0,0,.17.25,1.33,1.33,0,0,1,.06-.29,1.84,1.84,0,0,1,1.05-1.1,1.83,1.83,0,0,0,.38,1.4,2.13,2.13,0,0,0,1.5.63h.26a.77.77,0,0,1-.15-.19c-.06-.1-.84-1.38-.15-4.6.88-4.07-.57-4.76-.57-4.76a1.5,1.5,0,0,1,.17.43,2.08,2.08,0,0,1-.33,1.86c-.42.47-1.54.93-1.94,0a.9.9,0,0,1,.13-.77l.18-.27-.32.09a1.41,1.41,0,0,0-1,.68,1.24,1.24,0,0,0-.11.79h-.11a1.68,1.68,0,0,0-1.28.47,2.09,2.09,0,0,0-.48,1.53,1,1,0,0,1,.78-.67,2.1,2.1,0,0,1,.79.22,3.73,3.73,0,0,0,.66.21,6,6,0,0,0-3,2.57c.56-1.82.81-4,.8-8.13A2.23,2.23,0,0,1,26,25.24a.94.94,0,0,0,.21-.48,2.88,2.88,0,0,0-1-2.14c-.37-.36-1.3-1.07-1.45-1.27a6.84,6.84,0,0,1-1.27-1.71,3.72,3.72,0,0,0,1.78,1,1,1,0,0,1-.21.58c4,2.21,2,4.47,1.64,4.82L26,26a1.31,1.31,0,0,0,1.14-.87,1.57,1.57,0,0,0,0-1.07,16.63,16.63,0,0,0,1.61,1.14c1.1.71,1.08,1.18,1.09,1.42a1.5,1.5,0,0,0,.39-.61,1.92,1.92,0,0,0-.45-2c-.48-.55-.92-.63-1.83-1.5a10.18,10.18,0,0,0,1.51.4l.28.06a1.69,1.69,0,0,1,1.38,1.08s.46-1.48-.71-2.08a3,3,0,0,0,1.41-.54,1.5,1.5,0,0,0,.34-1.75,1.13,1.13,0,0,0-1.2-.66m-9.68.21c0,.06-.05.12-.07.2a2.39,2.39,0,0,0-.11.42,2.24,2.24,0,0,0-.45.07,1.11,1.11,0,0,1,.14-.44,3,3,0,0,0,.36-1.16,3.25,3.25,0,0,0,.23.29,1.16,1.16,0,0,1-.1.62M19,23.67l-.37,1.74-.67,0-.66,0-.19-.88v0l-.16-.7A4.46,4.46,0,0,0,18.31,23h.83Zm0,1a10.64,10.64,0,0,1,1.37.25l-.1.79a8.71,8.71,0,0,0-1.44-.27Zm-2,.77a9,9,0,0,0-1.45.27l-.1-.8a10.76,10.76,0,0,1,1.38-.24Zm1.68-2.85s0,0,.05-.05l.16-.14c.21-.2.42-.38.61-.54a2,2,0,0,1,.47.73Zm3,0H20.36a3.32,3.32,0,0,0-.25-.54c.12-.27,1.57-.87,1.77-.22a1.23,1.23,0,0,1-.11.76m.34,0h-.05A1.62,1.62,0,0,0,21.91,21h0c-.4-.36-1-.33-1.78.1a7.58,7.58,0,0,0-1.37,1.08,5.69,5.69,0,0,1-2.27,1.45l.45-1h0a11.91,11.91,0,0,1,3.2-2.17l0,0a1.85,1.85,0,0,0,.69.16.55.55,0,0,1-.25-.32,1.35,1.35,0,0,1,1.58.58,1.93,1.93,0,0,1-.08,1.79m-1.87-5.56a.72.72,0,0,1-.43.13c-.53,0-.84-.65-.84-.66l-.16-.33a1.9,1.9,0,0,0-.08.3,2.48,2.48,0,0,0,0,.84,13.59,13.59,0,0,1-4.19.82A4.13,4.13,0,0,1,18.11,16h.32a4.29,4.29,0,0,1,2.07.57.78.78,0,0,1-.26.47m-7.49,1.72.25-.26a8.28,8.28,0,0,1,1.27-.85,1.86,1.86,0,0,0-.18.34,3.67,3.67,0,0,0-.66.52,14.42,14.42,0,0,0,5.39-.91l.08.12a1.29,1.29,0,0,0,.16.17c-1,.36-4.27,1.43-6.31.87m6.55-.71a1.42,1.42,0,0,0,.41.14,1.58,1.58,0,0,0-.29,1.25,1.22,1.22,0,0,0,.42.75,12.19,12.19,0,0,0-2.94,2,4.4,4.4,0,0,0-2.1-3,18.43,18.43,0,0,0,4.5-1.11M16.64,22.5l-.45.94A2.73,2.73,0,0,1,16.12,21a4.67,4.67,0,0,1,.52,1.53m4.53-6.8.38.25a1,1,0,0,1,.32.87,1.11,1.11,0,0,0-.25-.51,2.32,2.32,0,0,0-.62-.43,1,1,0,0,0,0-.25.43.43,0,0,1,.2.07m-.5-.25a1.13,1.13,0,0,1,.1.67,1.33,1.33,0,0,0,0,.29,5.15,5.15,0,0,0-.85-.41h0s-.15-.06-.24-.44a2.28,2.28,0,0,0-.17-.49,2.45,2.45,0,0,1,1.15.39m1.42-3.19a.35.35,0,0,0,.27-.17.68.68,0,0,0,.06-.29s.35.41.2.73h0a.43.43,0,0,1-.15,0c-.11,0-.29-.21-.38-.27l0,0ZM18.46,3.32c0-.06,0-.14.07-.22a4.29,4.29,0,0,0,.19-.6,1.46,1.46,0,0,0,0-.88v0a.52.52,0,0,1,.17.06A2.36,2.36,0,0,0,18.46.38l0,0,.06,0c.85.36.89,1.53.89,1.76v.51l.24-.45a2.07,2.07,0,0,0,.22-1h0a2.77,2.77,0,0,1,.1,2v0h0a1.67,1.67,0,0,0,.5-.57l0,0v0A2.34,2.34,0,0,1,20.37,4l-.11.28.28-.12h0a.3.3,0,0,1,0,.17h0l-.39.31-.12.09a4,4,0,0,0-.77.69A5.22,5.22,0,0,0,18.64,7V7c-.11-.1-.22-.2-.34-.29a3,3,0,0,0,.22-2.28,3,3,0,0,0-.16-.37h0a2,2,0,0,1,.1-.76M18,7.57l-.15.12a1.67,1.67,0,0,0-.28-.25l.12-.16a2.16,2.16,0,0,1,.31.29m-.06-.4.24-.26.32.27-.31.23a2.89,2.89,0,0,0-.25-.24m-.25.66-.11.1A3.9,3.9,0,0,0,17,7.52l.07-.15a2.43,2.43,0,0,1,.63.46m.56-.2.26-.19a.34.34,0,0,1,0,.12,1.12,1.12,0,0,1-.76.61h0v0s0,0,0,0Zm-4.57-2.3a2.57,2.57,0,0,1-.51.12c.05,0,0,0,.24-.13A.78.78,0,0,0,13.82,5c.16,0,.38,0,.39,0s-.08-.13-.2-.18l-.17-.07a.11.11,0,0,1-.06-.11c0-.17.33-.1.33-.1a.54.54,0,0,1,.33.2.83.83,0,0,1,0,.12.73.73,0,0,0,0,.33h-.13a1.43,1.43,0,0,0-.63.14m.8.1s-.07.1-.07.1a1.94,1.94,0,0,1-.68.52c-.12,0,.07-.13.2-.27a.73.73,0,0,0,.1-.13c.09-.11.17-.23.21-.29a.66.66,0,0,1,.38,0l0,0s-.11,0-.17,0m3.11-.77a1.12,1.12,0,0,0-.46-.6.87.87,0,0,0-.45-.12,1.53,1.53,0,0,0-.41.07,1,1,0,0,0-.58.46c-.19.33-.34.72-.83.8a.43.43,0,0,1-.16,0c0-.13-.07-.41.06-.49a.28.28,0,0,0,.38-.19c0-.16-.09-.31-.23-.27s-.2.2-.27.23l0,0a1.41,1.41,0,0,0-.3-.18,1.4,1.4,0,0,1,.87-.49h0a5.45,5.45,0,0,0,.53-.24,1.84,1.84,0,0,1,.9-.23,2,2,0,0,1,.71.13,1.67,1.67,0,0,1,.92,1.07,2.66,2.66,0,0,1-.32,2.27l0,.06L17.81,7l-.17-.11.27-.42-.1-.06-.33-.17-.16-.08a2,2,0,0,0,.27-1.49m-2.7-.19s0,0,0,0,.15.12.13.18-.07.07-.1.06,0,0,0,0a.16.16,0,0,0,0-.18m2.27,1.85.23.1.21.11-.17.29-.18-.09-.2-.1Zm-.36.48a2.52,2.52,0,0,1,.34.15,2.17,2.17,0,0,1,.34.19l-.12.16a2.47,2.47,0,0,0-.31-.18,1.94,1.94,0,0,0-.3-.13Zm-.3-.7-.05.34-.34-.07V6a2.57,2.57,0,0,1,.4.08m-.39.53a2.21,2.21,0,0,1,.45.1l0,.18a3.35,3.35,0,0,0-.42-.1Zm0,.4a3.06,3.06,0,0,1,.75.23l-.07.15a3.46,3.46,0,0,0-.69-.22Zm2.45,5.81a.29.29,0,0,1-.11-.14c-.05-.1,0-.17-.06-.18h0l-.18.15c-.06-.09-.12-.32-.21-.31s-.25,0-.27,0a.85.85,0,0,0,.26-.23,3.74,3.74,0,0,1,.65.3,1.17,1.17,0,0,0,0,.4m.84.37,0,0V13.2a1.15,1.15,0,0,0-.18-.55A1.81,1.81,0,0,0,18,11.8,3.67,3.67,0,0,1,16.59,11,1.91,1.91,0,0,1,15.28,9.5s0-.11-.08-.11h0a1,1,0,0,1-.16.1l0,0a1.49,1.49,0,0,0,.17-.59V8.81a2.14,2.14,0,0,1,.67-1.25h0A.79.79,0,0,1,16,7.4a3.41,3.41,0,0,1,.76.26,2.57,2.57,0,0,1,.62.41.75.75,0,0,0,.12.4.12.12,0,0,0,.1,0h0a1.45,1.45,0,0,0,1.06-.79c.06-.15.11-.35.18-.58l0-.12a4.9,4.9,0,0,1,.58-1.46,4.14,4.14,0,0,1,.72-.64,7.46,7.46,0,0,0,.59-.51h0a3.28,3.28,0,0,0,1-1.5h0a.64.64,0,0,1,0,.09,1.1,1.1,0,0,1,0,.27s0,.06,0,.07h0c.05,0,.11-.07.18-.19a2.28,2.28,0,0,0,.31-.78,2.09,2.09,0,0,0,0-1.12l0,0,.1.13a2.47,2.47,0,0,1,.26,1.84v0c0,.12,0,.16,0,.17h0c.05,0,.13-.08.22-.16h0a1.73,1.73,0,0,0,.45-.81v0l0,0a.8.8,0,0,1,.06.29,2.25,2.25,0,0,1-.36,1.4c0,.08-.06.1,0,.11s0,0,.08,0l.11,0A1,1,0,0,0,23.73,4l0,0V4a.69.69,0,0,1,0,.31,1.62,1.62,0,0,1-.73,1c-.07,0-.08.06-.08.08s.12.06.31.07h0a1.06,1.06,0,0,0,.36,0l0,0,0,0a1.54,1.54,0,0,1-.63.83c-.06,0-.08,0-.08.07s.26.11.39.11h.05l0,0a5.61,5.61,0,0,1-1.46,1.14.13.13,0,0,0-.06.07,4,4,0,0,1-.45,1A3.08,3.08,0,0,1,19.67,10s0,0,0,0l.13.07c.82.36.77.72,1,.83l0,0h0c-.06,0-.09,0-.1.06s0,0,.09.09l.08.06a1.86,1.86,0,0,0,.63.41l.05,0-.08,0-.2,0H21.1l0,.06a4.45,4.45,0,0,1,.38.36c.12.13.12.19.24.3a1.61,1.61,0,0,0,.56.42h.05l0,0a1,1,0,0,1-.89,0h-.09a1.77,1.77,0,0,1-1.25-.5,1,1,0,0,0-.32-.2h0s0,0,0,.11,0,.11,0,.18,0,.15,0,.25,0,.23,0,.36a1,1,0,0,0,.15.42l0,.07-.06,0a.93.93,0,0,1-.38-.36s0-.1-.08-.26,0,0,0,0h0s0,0-.06.11a.82.82,0,0,1-.1.24m-1.15,1.71h.07a5.08,5.08,0,0,1,.89.08.58.58,0,0,1,.16.23,6.29,6.29,0,0,0-1.18-.1L18,14.92h.22m-1.62.25a4.87,4.87,0,0,1,.92-.2.34.34,0,0,1,.27.09,1,1,0,0,1,.3.42,1.25,1.25,0,0,0,.15.24,4.12,4.12,0,0,0-.94.08h0c-.05,0-.18,0-.38-.26a2.13,2.13,0,0,0-.33-.3s0-.05.05-.07m-1.4-.67a.74.74,0,0,1-.72-.76.75.75,0,0,1,.77-.72.74.74,0,0,1,.71.77.72.72,0,0,1-.76.71m.18,1.19a7.31,7.31,0,0,1,.68-.33.38.38,0,0,1,.24,0,2,2,0,0,1,.17.12,4,4,0,0,0-1,.41.75.75,0,0,0-.17-.1s0-.07.07-.1M15,16a.15.15,0,0,1,.15,0,1.22,1.22,0,0,1,.42.27,1.54,1.54,0,0,0,.26.18,5.79,5.79,0,0,0-1,.73l-.11.05A1.36,1.36,0,0,1,15,16m-3.18,2.26a2.35,2.35,0,0,1-1-.21,1.88,1.88,0,0,0,.43,0l.28,0a8.34,8.34,0,0,0,2.37-.85l.56-.26c0,.13,0,.25,0,.35a7.6,7.6,0,0,1-2.66.94M13,21.46a1.33,1.33,0,0,0,1,.82.73.73,0,0,0,.25,0,1.71,1.71,0,0,1-.28-1.65c-.4,0-.53-.41-.53-.41.93-.09.9-.79.9-.79.2.28,0,1.06-.23,1.52a1.05,1.05,0,0,0,0,.82h0a2.47,2.47,0,0,1,.26-1,2.62,2.62,0,0,0,.28-1.5A4.87,4.87,0,0,1,16,20.7a2.47,2.47,0,0,0-.39,1.89v0H11.25l.26-.17a7.66,7.66,0,0,0,1.45-1M10.87,23h4.79a3.9,3.9,0,0,0,.41,1,.14.14,0,0,0,.11.07h0a2.5,2.5,0,0,0,.49-.11l.13.55a10.17,10.17,0,0,0-1.34.24l-.09-.74a.18.18,0,0,0-.06-.09.11.11,0,0,0-.1,0,11,11,0,0,0-1.78.61.13.13,0,0,0-.07.08.12.12,0,0,0,0,.1l.39.63a9.8,9.8,0,0,0-1.07.55l-.31-.67a.12.12,0,0,0-.07-.07.12.12,0,0,0-.1,0,13.79,13.79,0,0,0-1.33.92c0-.88-.05-1.88,0-3m4.49,2.82-.77.27L13.7,24.6a10.34,10.34,0,0,1,1.45-.5Zm-4.42.77.17.15.15.15-.29.29,0-.59m.15,1.94Q11,28,11,27.47l.14-.15.31-.3.59.56a10.16,10.16,0,0,0-.95.91m1.55-1.37-.4.3-.68-.64s0,0,0,0l-.26-.23L11,26.25a11.85,11.85,0,0,1,1.25-.89l.7,1.55-.3.21M12.82,26a9,9,0,0,1,1.11-.58l.43.7a9.94,9.94,0,0,0-1.21.63Zm1.7,7.22-1,1.55.8-1.66a.09.09,0,0,0,0-.1l0,0,3.08-5.91a.06.06,0,0,0,0-.06.74.74,0,0,1-.05-.25.7.7,0,1,1,1.4,0,.58.58,0,0,1-.05.26h0a.64.64,0,0,1-.58.38H18a.1.1,0,0,0-.09.07l-3.23,5.75-.08,0a.07.07,0,0,0-.06,0M18,39.58a20.18,20.18,0,0,1-3.42-3L18,29.91l3.43,6.71a20.18,20.18,0,0,1-3.42,3m3.41-6.34a.09.09,0,0,0-.07,0l-.07,0-3.16-5.67a.79.79,0,0,0,.61-.33l3,5.78-.05,0a.07.07,0,0,0,0,.09l.86,1.8Zm-.83-7.46.22-1.69a12.77,12.77,0,0,1,1.47.51l-.89,1.45c-.27-.1-.53-.19-.8-.27m1,.37.42-.68a9.77,9.77,0,0,1,1.11.58l-.33.73a9.82,9.82,0,0,0-1.2-.63m2,1.15c-.18-.14-.36-.26-.55-.39l.7-1.55a10.91,10.91,0,0,1,1.23.85l-1.21,1.22Zm1.31,1.2a10.21,10.21,0,0,0-1-.91l.56-.56.48.45q0,.54-.09,1M25,27.16l-.33-.3.36-.38c0,.24,0,.46,0,.68M25,26a13.37,13.37,0,0,0-1.33-.91.15.15,0,0,0-.11,0,.12.12,0,0,0-.07.07l-.32.7a8.36,8.36,0,0,0-1.07-.56l.4-.65a.12.12,0,0,0,0-.1.16.16,0,0,0-.06-.08,11.45,11.45,0,0,0-1.79-.61.11.11,0,0,0-.15.1l-.1.75a10,10,0,0,0-1.33-.24l.14-.71.16-.76h5.65s0,2.15,0,3m-1.22-4.1c.18.16.52.41.68.56l.2.18H22.4a2.24,2.24,0,0,0,0-1.93,1.34,1.34,0,0,0-1.14-.78,2.59,2.59,0,0,1,.1-.35l.06-.19a1.71,1.71,0,0,0,.12-.41l0,0a11.51,11.51,0,0,0,2.2,2.88"/><path class="cls-2" d="M32.72,18.44a1.82,1.82,0,0,0-1.89-1.23h-.29c-.08-.21-.31-.45-1.18-.64s-1-.56-1-.67a2.44,2.44,0,0,1-.08-.27A1.63,1.63,0,0,0,28.68,18a3,3,0,0,0-.68.79c-.89,1.33-1.67,1.3-1.67,1.3a2.74,2.74,0,0,0,1.35.32,1.8,1.8,0,0,0,1.44-.61,1,1,0,0,0,.85.5h0a.77.77,0,0,0,.54-.2,1.08,1.08,0,0,1-.35-.48.64.64,0,0,1,.2-.52.94.94,0,0,1,.51-.29h0a1.38,1.38,0,0,1,1.17.36,1.54,1.54,0,0,1,.51,1,2.91,2.91,0,0,0,.16-1.67"/><path class="cls-2" d="M26.72,35.09c1-.22.66-1.89-.12-2.19A.89.89,0,0,1,26.44,34a.69.69,0,0,1-1-.4,1.47,1.47,0,0,1,.21-1.26,5,5,0,0,0-.81,1c-.32.52-.56,2.05-.81,2.52a1.13,1.13,0,0,1-1.05.57h-.11l-.26,0,.13.23a1.33,1.33,0,0,0,1.16.69,1.52,1.52,0,0,0,.59-.12,1.85,1.85,0,0,0,1-.89,2,2,0,0,0,.49.69,5.85,5.85,0,0,1,.41.49,1.38,1.38,0,0,1,.28,1.08.71.71,0,0,1-.14.31,2.06,2.06,0,0,0,.94-1.47,2.15,2.15,0,0,0-.7-2.26"/><path class="cls-2" d="M13,36.39a1.05,1.05,0,0,1-1-.57,20.88,20.88,0,0,0-.77-2.56,3.28,3.28,0,0,0-1-1.11,1.51,1.51,0,0,1,.33,1.43.68.68,0,0,1-1,.39c-.53-.44-.12-1.1-.16-1.07-.78.3-1.13,2-.12,2.19a2.14,2.14,0,0,0-.69,2.26,2,2,0,0,0,.93,1.47.87.87,0,0,1-.14-.31,1.38,1.38,0,0,1,.28-1.08,5.85,5.85,0,0,1,.41-.49,2,2,0,0,0,.49-.69,1.85,1.85,0,0,0,1,.89,1.72,1.72,0,0,0,.59.12,1.42,1.42,0,0,0,1.3-.91,1.18,1.18,0,0,1-.27,0H13"/><path class="cls-2" d="M10.52,17.41a2.32,2.32,0,0,0,.29,0,1.43,1.43,0,0,0,.82-.4.9.9,0,0,0-.94-1l0,0a.84.84,0,0,1,.16.23.94.94,0,0,1-.19,1Z"/><path class="cls-2" d="M17.47,34.7a.91.91,0,0,1,.5,0s-.09-.27-.59-.3-.32-.17-.32-.17-.21.42.41.42"/><path class="cls-2" d="M18,27.11a.33.33,0,0,0,.32-.32.32.32,0,0,0-.32-.32.32.32,0,0,0-.32.32.32.32,0,0,0,.32.32"/><path class="cls-2" d="M17.87,31.82l-1.63,3.46a.17.17,0,0,0,0,.1l1.63,3.38a.11.11,0,0,0,.2,0l1.63-3.38a.17.17,0,0,0,0-.1l-1.63-3.46a.11.11,0,0,0-.2,0m.1.31,1.51,3.2L18,38.47l-1.51-3.14Z"/><path class="cls-2" d="M18,34.76a1.35,1.35,0,0,0-.51.85,2.16,2.16,0,0,1,.41-.33,2.07,2.07,0,0,0-.4.83,2.86,2.86,0,0,1,.44-.4,2.66,2.66,0,0,0-.34.94,1.48,1.48,0,0,1,.33-.47,2.5,2.5,0,0,0-.19.92,1.72,1.72,0,0,1,.22-.45,1.41,1.41,0,0,0,0,1,1.59,1.59,0,0,0,0-1,2.09,2.09,0,0,1,.23.45,2.36,2.36,0,0,0-.19-.92,2,2,0,0,1,.32.47,2.53,2.53,0,0,0-.33-.94,4.81,4.81,0,0,1,.43.4,2.07,2.07,0,0,0-.39-.83,1.74,1.74,0,0,1,.41.33,1.4,1.4,0,0,0-.52-.85"/><path class="cls-2" d="M18,33.33a.88.88,0,0,1-.05.4,1,1,0,0,0,.07,1c0-.35.41-.65,0-1.37"/><path class="cls-2" d="M18,34.75a.91.91,0,0,1,.5,0c.62,0,.41-.42.41-.42s0,.16-.35.17-.56.3-.56.3"/><path class="cls-2" d="M48.6,6.57c1.06-.26,1.54-1.11,1.54-2.51,0-2.26-1-2.87-3.88-2.87H42.15V12.4h4.62c2.62,0,3.72-.75,3.72-3,0-1.6-.5-2.58-1.89-2.83M44.52,3h1.63c1.27,0,1.67.27,1.67,1.38S47.45,5.8,46.28,5.8H44.52Zm1.84,7.57H44.52V7.4h1.77c1.37,0,1.77.35,1.77,1.68s-.38,1.5-1.7,1.5"/><path class="cls-2" d="M54,7.13a7.59,7.59,0,0,1,2.4-.53h.64v-2h-.18a4.61,4.61,0,0,0-3.13,1.14l-.18-1.14h-1.9V12.4H54Z"/><path class="cls-2" d="M60.29,12.6a5,5,0,0,0,3.23-1.28l.18,1.08h1.86V4.58H63.22V10a4.47,4.47,0,0,1-1.95.65c-.64,0-.86-.24-.84-.92V4.58H58.08v5.85a1.94,1.94,0,0,0,2.21,2.17"/><path class="cls-2" d="M69.34,7.05a4.94,4.94,0,0,1,2.17-.71c.57,0,.76.2.76.92V12.4h2.34V6.53a2,2,0,0,0-2.2-2.17,5.38,5.38,0,0,0-3.34,1.38l-.18-1.16H67V12.4h2.35Z"/><path class="cls-2" d="M79.93,12.59A8.65,8.65,0,0,0,83.34,12l-.22-1.46c-1.06.11-2.21.18-2.92.18-1.19,0-1.71-.27-1.86-1.45h2.83c1.7,0,2.38-.76,2.38-2.19,0-1.79-1-2.72-3.71-2.72-2.85,0-4,1-4,4.14,0,2.88,1.11,4.09,4.08,4.09m0-6.52c1,0,1.33.25,1.33,1,0,.45-.1.81-.73.81H78.3c.06-1.47.44-1.79,1.62-1.79"/><path class="cls-2" d="M87.94,10.64c-.59,0-.89-.26-.89-.8V1.19H84.72v9.24A2,2,0,0,0,87,12.59a5.32,5.32,0,0,0,1.87-.32l-.27-1.63Z"/><path class="cls-2" d="M57.88,25.6V19.83a1.87,1.87,0,0,0-2.07-2.11,6,6,0,0,0-3.55,1.47l-.08-1.27h-.84V25.6h1V19.92a6,6,0,0,1,3.19-1.33c.94,0,1.34.41,1.34,1.51v5.5Z"/><rect class="cls-2" x="59.22" y="17.93" width="1" height="7.67"/><polygon class="cls-2" points="68.95 17.93 67.89 17.93 65.16 24.99 62.46 17.93 61.38 17.93 64.47 25.6 65.88 25.6 68.95 17.93"/><path class="cls-2" d="M75.71,24.73a22.89,22.89,0,0,1-2.65.19c-1.76,0-2.54-.57-2.66-2.67h3.84c1.25,0,1.77-.76,1.76-2.14,0-1.58-1-2.39-3.21-2.39-2.44,0-3.44,1-3.44,4s1,4.06,3.57,4.06a10.47,10.47,0,0,0,2.91-.38Zm-2.87-6.14c1.49,0,2.13.46,2.14,1.54,0,.76-.19,1.33-1,1.33H70.4c0-2.17.65-2.87,2.44-2.87"/><path class="cls-2" d="M43.2,36.78V27.85H42.15v9a1.8,1.8,0,0,0,2,1.9h4.15v-.86h-4a1,1,0,0,1-1.14-1.16"/><path class="cls-2" d="M52.29,30.92c-2.58,0-3.54,1.1-3.54,4s1,4,3.54,4,3.53-1.08,3.53-4-.94-4-3.53-4m0,7.22c-1.85,0-2.47-.75-2.47-3.18s.62-3.17,2.47-3.17,2.48.75,2.48,3.17-.62,3.18-2.48,3.18"/><path class="cls-2" d="M61.69,30.92a5.94,5.94,0,0,0-3.56,1.48l-.08-1.27h-.84V38.8h1V33.13a6,6,0,0,1,3.19-1.34c.94,0,1.34.42,1.34,1.51v5.5h1V33a1.87,1.87,0,0,0-2.06-2.11"/><path class="cls-2" d="M70.82,31.64A6.26,6.26,0,0,0,68,30.92c-2,0-2.87,1.07-2.87,4,0,2.76.76,4,2.74,4a4.71,4.71,0,0,0,3.08-1.38L71,38.8h.78V27.85h-1Zm0,5.24a4.23,4.23,0,0,1-2.68,1.22c-1.43,0-2-.74-2-3.17s.55-3.12,2-3.12a7.83,7.83,0,0,1,2.63.56Z"/><path class="cls-2" d="M76.77,30.92c-2.59,0-3.54,1.1-3.54,4s1,4,3.54,4,3.52-1.08,3.52-4-.93-4-3.52-4m0,7.22c-1.86,0-2.48-.75-2.48-3.18s.62-3.17,2.48-3.17,2.48.75,2.48,3.17-.62,3.18-2.48,3.18"/><path class="cls-2" d="M86.16,30.92a5.94,5.94,0,0,0-3.55,1.48l-.08-1.27h-.84V38.8h1V33.13a5.93,5.93,0,0,1,3.19-1.34c.94,0,1.33.42,1.33,1.51v5.5h1V33a1.87,1.87,0,0,0-2.07-2.11"/><path class="cls-2" d="M46.05,25.79c2.89,0,3.9-1.19,3.9-4.33v-6.8h-1v6.8c0,2.52-.76,3.41-2.87,3.41s-2.87-.89-2.87-3.41v-6.8h-1v6.8c0,3.14,1,4.33,3.9,4.33"/><path class="cls-2" d="M81.29,17.72a5.18,5.18,0,0,0-3.05,1.47l-.08-1.27h-.84V25.6h1V19.92a5.27,5.27,0,0,1,2.9-1.25h.21l.26-.92a2.24,2.24,0,0,0-.41,0"/><path class="cls-2" d="M59.72,15.16a.67.67,0,1,0,.67.67.67.67,0,0,0-.67-.67"/><rect class="cls-2" x="89.72" y="17.93" width="1" height="7.67"/><path class="cls-2" d="M90.22,15.16a.67.67,0,1,0,.67.67.67.67,0,0,0-.67-.67"/><path class="cls-2" d="M104,17.92,101.25,25l-2.69-7.06H97.48l3.32,8.21a3.3,3.3,0,0,1-2.21,2.1l.13.65c1.73-.19,2.52-1.42,3-2.74l3.29-8.22Z"/><path class="cls-2" d="M86.58,21.54l-2.37-.44c-.76-.16-1.17-.37-1.17-1.29s.57-1.23,2.09-1.22a28.83,28.83,0,0,1,2.91.19l.12-.68A12.53,12.53,0,0,0,85,17.72c-2,0-3,.44-3,2.09a1.84,1.84,0,0,0,1.72,2.09l2.35.45c.74.14,1.25.35,1.25,1.25,0,1.07-.59,1.32-2.38,1.33a20.7,20.7,0,0,1-2.65-.22l-.11.68a10.2,10.2,0,0,0,2.94.4c2.12,0,3.19-.44,3.19-2.19a1.86,1.86,0,0,0-1.78-2.06"/><path class="cls-2" d="M95.46,24.92c-.76,0-1.13-.38-1.13-1.16v-5h2.49l-.32-.8H94.33V15.59h-1v2.33H92v.8h1.34v5.15a1.7,1.7,0,0,0,1.9,1.92,7.89,7.89,0,0,0,1.6-.21l-.13-.74a9,9,0,0,1-1.24.08"/></svg>