<?xml version="1.0" encoding="UTF-8"?>
<svg id="icons" xmlns="http://www.w3.org/2000/svg" viewBox="0 0 80 80"><defs><style>.cls-1{fill:#3976c5;}</style></defs><title>arden-icon-price-health</title><path class="cls-1" d="M72.05,3.32H50.22a13.56,13.56,0,0,0-8.44,3.17C40.37,7.74,7.33,37.21,5.63,38.9,2.57,42,2.1,46,4.38,49.43c1.55,2.32,12.35,12.84,22.71,22.84l2.54,2.46a6.55,6.55,0,0,0,4.65,2,8.82,8.82,0,0,0,6.18-3c2.89-2.89,32.91-33.6,33.26-34a13.82,13.82,0,0,0,3.33-8.44v-23A5,5,0,0,0,72.05,3.32Zm-21.65,41-6.82,6.81a1.42,1.42,0,0,1-2.18,0,1.47,1.47,0,0,1-.36-.53,18.13,18.13,0,0,0-3.73-5.94l-.9.89a1.45,1.45,0,0,1-1.09.46,1.59,1.59,0,0,1-1.11-.5,1.48,1.48,0,0,1,0-2.16l.68-.68c-1.33-.57-2.3-1-2.9-1.35A8,8,0,0,1,30.22,40a5.87,5.87,0,0,1-1.57-2.74,6.11,6.11,0,0,1,0-3.12,6,6,0,0,1,1.56-2.71A7.74,7.74,0,0,1,33,29.63a6.24,6.24,0,0,1,3.16-.3,1.47,1.47,0,0,1,.87.45,1.54,1.54,0,0,1,.48,1.09A1.52,1.52,0,0,1,37,32a1.08,1.08,0,0,1-.94.38l-1,0a4.24,4.24,0,0,0-1.51.27,3.44,3.44,0,0,0-1.15.76,2.88,2.88,0,0,0-.94,2.24,3.46,3.46,0,0,0,1.11,2.26,13.24,13.24,0,0,0,4.59,2.55l2.67-2.68a1.5,1.5,0,0,1,2.16,0,1.59,1.59,0,0,1,.5,1.12A1.41,1.41,0,0,1,42,40l-2.52,2.53A20.3,20.3,0,0,1,43,47.38l4.56-4.56-.21-.59a6.92,6.92,0,0,1-.28-1,1.51,1.51,0,0,1,.36-1.5,1.48,1.48,0,0,1,1.12-.46,1.53,1.53,0,0,1,1.09.46,1.46,1.46,0,0,1,.38.63l.76,2.3A1.51,1.51,0,0,1,50.4,44.35Zm13.65-22a6,6,0,1,1,6-6A6,6,0,0,1,64.05,22.32Z"/></svg>