<?xml version="1.0" encoding="UTF-8"?>
<svg id="icons" xmlns="http://www.w3.org/2000/svg" viewBox="0 0 80 80"><defs><style>.cls-1{fill:#3976c5;}</style></defs><title>arden-icon-online-platform-health</title><path class="cls-1" d="M64.18,56.51l9.28-5.3a3.48,3.48,0,0,0,1.75-3,3.45,3.45,0,0,0-1.81-3L31.85,22.49a3.46,3.46,0,0,0-5,3.85L38.15,73.56a3.46,3.46,0,0,0,6,1.41l6.64-8,8.71,11.62A3.48,3.48,0,0,0,61.87,80a3.11,3.11,0,0,0,.43,0,3.52,3.52,0,0,0,2.17-.76l9.44-7.56a3.48,3.48,0,0,0,1.3-2.51,3.51,3.51,0,0,0-1-2.64Z"/><path class="cls-1" d="M14.36,6.55A2.31,2.31,0,0,0,11.1,9.81l4.9,4.9a2.31,2.31,0,1,0,3.26-3.27Z"/><path class="cls-1" d="M14,24.48H7.1a2.31,2.31,0,0,0,0,4.62H14a2.31,2.31,0,0,0,0-4.62Z"/><path class="cls-1" d="M31.19,12.15h.25a2.32,2.32,0,0,0,2.3-2.06l.81-7.54A2.31,2.31,0,1,0,30,2.06L29.15,9.6A2.31,2.31,0,0,0,31.19,12.15Z"/></svg>