<?xml version="1.0" encoding="UTF-8"?>
<svg id="icons" xmlns="http://www.w3.org/2000/svg" viewBox="0 0 80 80"><defs><style>.cls-1{fill:#5b76a3;}</style></defs><title>brunel-icon-skills-think-under-pressure-secondary</title><path class="cls-1" d="M40,4A36,36,0,1,0,76,40,36,36,0,0,0,40,4Zm0,68A32,32,0,1,1,72,40,32,32,0,0,1,40,72Z"/><path class="cls-1" d="M56.09,27.84c-3.86-5.14-6.24-7.4-12.8-7.4-5.86,0-11.27,7.11-14.83,12.45a7.6,7.6,0,0,0-.87,7.37l-6,5.48a3.73,3.73,0,0,0,0,5.41c.49.49,1.09,1,1.73,1.5s1.49,1.22,2.18,1.91a31.25,31.25,0,0,1,2.19,2.52c.38.47.67.84.9,1.07a4.4,4.4,0,0,0,3.13,1.4A4.12,4.12,0,0,0,33,59.33a5.47,5.47,0,0,0,2-1.18l5.83-5.83a8.63,8.63,0,0,0,1.46.12c6.17,0,16-4.11,16-9a10,10,0,0,0-.28-2.3C58.33,40.81,62.43,36.29,56.09,27.84ZM33.58,56.74a2.42,2.42,0,0,1-3.58,0c-.15-.16-.45-.52-.76-.91a33.92,33.92,0,0,0-2.34-2.69,29.81,29.81,0,0,0-2.33-2c-.59-.49-1.16-1-1.57-1.36a1.72,1.72,0,0,1,0-2.56L28.61,42a11.1,11.1,0,0,0,1,1.12c.67.67,1.37,1.53,2.1,2.43,1.81,2.24,3.94,4.87,6.94,6.12Zm23.59-18a7.4,7.4,0,0,0-2.63-3.07,4.62,4.62,0,0,0-4.7-.16,5,5,0,0,0-3.12,5.72c-1.51-.8-4-2.61-7-6.75-2.62-3.54,2.25-7.23,2.46-7.38a1,1,0,0,0,.2-1.4A1,1,0,0,0,41,25.53C38.62,27.25,35,31.6,38.08,35.71c4.66,6.3,8.2,7.74,9.58,8.07a9.23,9.23,0,0,0,.86,1.3,1,1,0,1,0,1.54-1.27s-1.8-2.26-1.38-4.21a3.39,3.39,0,0,1,2.06-2.26,2.62,2.62,0,0,1,2.74.07c1.6,1,2.81,3.58,2.81,6,0,3-8,7-14,7-4.11,0-6.74-3.25-9.06-6.12A33.5,33.5,0,0,0,31,41.74c-3.15-3.15-1.9-6.2-.88-7.74C32,31.14,37.83,22.44,43.29,22.44s7.37,1.49,11.2,6.6S57.81,37.31,57.17,38.78Z"/><path class="cls-1" d="M26.76,48.73a1,1,0,0,0-1.21,1.59,18.28,18.28,0,0,1,3.86,3.81,1,1,0,1,0,1.76-.93C30.22,51.4,27.11,49,26.76,48.73Z"/><path class="cls-1" d="M28.63,45.92a1,1,0,1,0-1.26,1.55,36.29,36.29,0,0,1,5,4.93,1,1,0,0,0,.82.42,1,1,0,0,0,.58-.19A1,1,0,0,0,34,51.24,36.56,36.56,0,0,0,28.63,45.92Z"/></svg>