<?xml version="1.0" encoding="utf-8"?>
<!-- Generator: Adobe Illustrator 23.0.1, SVG Export Plug-In . SVG Version: 6.00 Build 0)  -->
<svg version="1.1" id="icons" xmlns="http://www.w3.org/2000/svg" xmlns:xlink="http://www.w3.org/1999/xlink" x="0px" y="0px"
	 viewBox="0 0 80 80" style="enable-background:new 0 0 80 80;" xml:space="preserve">
<style type="text/css">
	.st0{fill:#5B76A3;}
</style>
<title>arden-icon-see-bigger-picture-health</title>
<path class="st0" d="M76.9,24.4C68.3,4,44.7-5.6,24.3,3S-5.8,35.1,2.8,55.6S34.9,85.6,55.4,77C70.3,70.8,80,56.2,80,40
	C80,34.7,78.9,29.4,76.9,24.4z M60.1,36.8c-0.2-5.2-0.9-10.3-2.2-15.4h13.3c2.8,4.7,4.5,9.9,5,15.4H60.1z M76.2,40.6
	c-0.1,5.6-1.5,11.2-4.1,16.1H58.3c1.2-5.3,1.8-10.7,1.8-16.1H76.2z M68.6,17.7H56.8c-0.6-1.9-1.4-3.7-2.2-5.5
	c-1.2-2.5-2.7-4.9-4.5-7C57.4,7.3,63.9,11.7,68.6,17.7z M41.9,21.5H54c1.3,5,2.1,10.2,2.3,15.4H41.9V21.5z M41.9,17.7V4
	c1.5,0.4,2.9,1.2,4,2.3c2.3,2.1,4.1,4.7,5.3,7.6c0.6,1.2,1.1,2.5,1.6,3.9L41.9,17.7z M34.1,6.3c1.1-1.1,2.5-1.8,4-2.3v13.7h-11
	c0.5-1.4,1-2.6,1.6-3.9C30.1,11,31.9,8.4,34.1,6.3z M38.1,21.5v15.4H23.7c0.2-5.2,1-10.3,2.3-15.4H38.1z M38.1,40.6v16.1H25.5
	c-1.2-5.3-1.9-10.7-1.9-16.1H38.1z M38.1,60.5V76c-1.5-0.4-2.9-1.2-4-2.3c-2.3-2.1-4.1-4.7-5.3-7.6c-0.9-1.8-1.6-3.7-2.2-5.6
	L38.1,60.5z M45.9,73.7c-1.1,1.1-2.5,1.8-4,2.3V60.5h11.5c-0.6,1.9-1.3,3.8-2.2,5.6C49.9,69,48.1,71.6,45.9,73.7L45.9,73.7z
	 M41.9,56.7V40.6h14.5c0,5.4-0.7,10.8-1.9,16.1L41.9,56.7z M30,5.2c-1.8,2.1-3.4,4.5-4.5,7c-0.8,1.8-1.6,3.6-2.2,5.5H11.4
	C16.1,11.7,22.6,7.3,30,5.2z M3.8,40.6h16.1c0,5.4,0.6,10.8,1.8,16.1H7.9C5.3,51.8,3.8,46.2,3.8,40.6z M19.9,36.8h-16
	c0.5-5.4,2.2-10.7,5-15.4h13.2C20.8,26.5,20.1,31.7,19.9,36.8z M10.1,60.5h12.5c0.7,2.5,1.6,4.9,2.8,7.3c1.2,2.5,2.7,4.9,4.5,7
	C21.9,72.4,14.9,67.4,10.1,60.5z M50,74.8c1.8-2.1,3.4-4.5,4.5-7c1.1-2.3,2-4.8,2.8-7.3h12.5C65.1,67.5,58.1,72.5,50,74.8z"/>
</svg>
