<?xml version="1.0" encoding="utf-8"?>
<!-- Generator: Adobe Illustrator 23.0.1, SVG Export Plug-In . SVG Version: 6.00 Build 0)  -->
<svg version="1.1" id="icons" xmlns="http://www.w3.org/2000/svg" xmlns:xlink="http://www.w3.org/1999/xlink" x="0px" y="0px"
	 viewBox="0 0 80.1 80" style="enable-background:new 0 0 80.1 80;" xml:space="preserve">
<style type="text/css">
	.st0{fill:#5B76A3;}
</style>
<title>brunel-icon-awareness-primary</title>
<path class="st0" d="M6.4,80c-1.7,0-3.3-0.7-4.5-1.9c-2.5-2.4-2.6-6.4-0.2-8.9l18.5-18.5c0.3-0.3,0.3-0.7,0.1-1
	c-8.1-12.8-6.3-29.5,4.4-40.2c12.6-12.6,33.1-12.7,45.8,0s12.7,33.1,0,45.8c-10.7,10.7-27.4,12.5-40.2,4.4c-0.1-0.1-0.3-0.1-0.5-0.1
	c-0.2,0-0.4,0.1-0.6,0.2L10.8,78.2C9.7,79.4,8.1,80,6.5,80H6.4z M16.3,59.9c-0.2,0-0.4,0.1-0.6,0.2L4.2,71.6c-1.1,1.2-1,3,0.2,4.1
	c0.6,0.6,1.3,0.9,2.1,0.9h0.1c0.7,0,1.3-0.3,1.8-0.8l11.5-11.5c0.3-0.3,0.3-0.8,0-1.2c0,0,0,0,0,0l-3-3C16.7,60,16.5,59.9,16.3,59.9
	z M47.7,3.4c-7.7,0-15,3-20.5,8.5c-9.7,9.7-11.2,24.8-3.7,36.3l0.9,1.2c0.4,0.6,0.9,1.1,1.3,1.7s1,1.2,1.5,1.7s1,1,1.7,1.5
	s1.1,0.9,1.7,1.3l1.2,0.9c13.3,8.8,31.3,5.1,40.1-8.3S76.9,17,63.6,8.2C58.9,5.1,53.4,3.4,47.7,3.4z M22.8,53.4
	c-0.2,0-0.4,0.1-0.6,0.2l-2.9,2.8c-0.2,0.2-0.3,0.4-0.2,0.6c0,0.2,0.1,0.4,0.2,0.6l3,3c0.2,0.2,0.4,0.2,0.6,0.2l0,0
	c0.2,0,0.4-0.1,0.6-0.2l2.9-2.9c0.2-0.2,0.2-0.4,0.2-0.6c0-0.2-0.1-0.5-0.3-0.6c-0.5-0.5-1-0.9-1.5-1.4s-1-1-1.4-1.5
	C23.2,53.5,23,53.4,22.8,53.4L22.8,53.4z"/>
<path class="st0" d="M60.5,51.9c-0.3,0-0.6-0.1-0.9-0.3l-11.4-7.1c-0.1-0.1-0.3-0.1-0.5-0.1c-0.2,0-0.3,0-0.4,0.1l-11.4,7.1
	c-0.6,0.4-1.4,0.3-2-0.1c-0.6-0.4-0.8-1.2-0.6-1.9l4.5-13.6c0.1-0.3,0-0.7-0.3-0.9l-8.7-6.6c-0.8-0.6-0.9-1.7-0.3-2.4
	c0.3-0.4,0.8-0.7,1.3-0.7h11c0.4,0,0.7-0.2,0.8-0.6l4.5-13.6c0.3-0.9,1.3-1.4,2.2-1.1c0.5,0.2,0.9,0.6,1.1,1.1l4.5,13.6
	c0.1,0.3,0.4,0.6,0.8,0.6h10.9c0.9,0,1.7,0.8,1.7,1.8c0,0.5-0.3,1-0.7,1.3l-8.8,6.6c-0.3,0.2-0.4,0.6-0.3,0.9l4.5,13.6
	c0.3,0.9-0.2,1.9-1.1,2.2C60.8,51.9,60.6,51.9,60.5,51.9L60.5,51.9z M47.7,40.5c0.3,0,0.6,0.1,0.9,0.3l6.8,4.2
	c0.1,0.1,0.3,0.1,0.5,0.1c0.2,0,0.4-0.1,0.5-0.2c0.3-0.2,0.4-0.6,0.3-0.9l-2.9-8.6c-0.2-0.7,0-1.5,0.6-1.9l4.1-3.1
	c0.4-0.3,0.4-0.8,0.2-1.2c-0.2-0.2-0.4-0.3-0.7-0.3h-5.1c-0.7,0-1.4-0.5-1.6-1.2l-2.7-8c-0.1-0.3-0.4-0.6-0.8-0.6
	c-0.4,0-0.7,0.2-0.8,0.6l-2.7,8C44,28.5,43.3,29,42.6,29h-5.1c-0.5,0-0.8,0.4-0.8,0.8c0,0.3,0.1,0.5,0.3,0.7l4.1,3.1
	c0.6,0.4,0.8,1.2,0.6,1.9L38.8,44c-0.2,0.4,0.1,0.9,0.5,1.1c0.1,0,0.2,0,0.3,0c0.1,0,0.3,0,0.4-0.1l6.8-4.2
	C47,40.6,47.4,40.5,47.7,40.5z"/>
</svg>
