<?xml version="1.0" encoding="UTF-8"?>
<svg id="icons" xmlns="http://www.w3.org/2000/svg" viewBox="0 0 80 80"><defs><style>.cls-1{fill:#5b76a3;}</style></defs><title>brunel-icon-skills-bigger-picture-secondary</title><path class="cls-1" d="M40,4A36,36,0,1,0,76,40,36,36,0,0,0,40,4Zm0,68A32,32,0,1,1,72,40,32,32,0,0,1,40,72Z"/><path class="cls-1" d="M58.55,39.5,47.93,36.66a1,1,0,0,0-.71-1.23L36.59,32.59l.26-1a1,1,0,0,0-.7-1.22l-11.6-3.11a1,1,0,0,0-1.22.71l-2.59,9.66a1,1,0,0,0,.71,1.22L33,42a1.15,1.15,0,0,0,.26,0,1,1,0,0,0,1-.74l.26-1,3.57,1L31.46,57.36A1,1,0,0,0,32,58.67a1,1,0,0,0,1.3-.55L38.39,45.8V59.74a1,1,0,0,0,2,0V45.8l5.07,12.32a1,1,0,0,0,.93.62,1,1,0,0,0,.38-.07,1,1,0,0,0,.54-1.31L41,42.05l4.14,1.11a1.09,1.09,0,0,0,.26,0,1,1,0,0,0,.5-.14,1,1,0,0,0,.46-.61h0L57,45.3a1.09,1.09,0,0,0,.26,0,1,1,0,0,0,1-.74l1-3.86a1,1,0,0,0-.71-1.23ZM22.93,37.21,25,29.48l9.66,2.59L32.59,39.8Zm13.15-2.69,9.66,2.59L44.7,41h0L35,38.38Zm20.47,8.59-9.66-2.59.52-1.93,9.66,2.59Z"/></svg>