<svg id="icons" xmlns="http://www.w3.org/2000/svg" viewBox="0 0 80 80"><defs><style>.cls-1{fill:#3976c5;}</style></defs><title>brunel-icon-skills-bigger-picture-primary</title><path class="cls-1" d="M40,0A40,40,0,1,0,80,40,40,40,0,0,0,40,0Zm0,75.56A35.56,35.56,0,1,1,75.56,40,35.56,35.56,0,0,1,40,75.56Z"/><path class="cls-1" d="M60.61,39.44l-11.8-3.15A1.12,1.12,0,0,0,48,34.92h0L36.21,31.77l.29-1.11a1.11,1.11,0,0,0-.78-1.36L22.83,25.84a1.11,1.11,0,0,0-1.35.79L18.6,37.37a1.11,1.11,0,0,0,.79,1.35l12.83,3.5h.29a1.1,1.1,0,0,0,1.11-.82l.29-1.11,4,1.11L30.51,59.29a1.1,1.1,0,0,0,.6,1.45h0a1.12,1.12,0,0,0,1.45-.61l5.65-13.69V61.93a1.11,1.11,0,0,0,2.22,0V46.44l5.64,13.69a1.11,1.11,0,0,0,1,.69,1,1,0,0,0,.42-.08,1.1,1.1,0,0,0,.6-1.45h0l-7-17,4.6,1.23a1.41,1.41,0,0,0,.29,0,1.09,1.09,0,0,0,.56-.15,1.17,1.17,0,0,0,.51-.68h0l11.82,3.21h.29a1.11,1.11,0,0,0,1.11-.82l1.11-4.29a1.12,1.12,0,0,0-.78-1.37h0ZM21,36.9l2.3-8.59,10.74,2.88-2.3,8.59Zm14.61-3,10.74,2.88-1.16,4.32h0L34.44,38.2Zm22.75,9.55L47.66,40.58l.57-2.15L59,41.31Z"/></svg>