<?xml version="1.0" encoding="UTF-8"?>
<svg id="icons" xmlns="http://www.w3.org/2000/svg" viewBox="0 0 80 80"><defs><style>.cls-1{fill:#5b76a3;}</style></defs><title>brunel-icon-chat-secondary</title><path class="cls-1" d="M65,40V16a8,8,0,0,0-8-8H13a8,8,0,0,0-8,8V40a8,8,0,0,0,8,8h2V61a2,2,0,0,0,1.23,1.85A2.07,2.07,0,0,0,17,63a2,2,0,0,0,1.41-.59L32.83,48H57A8,8,0,0,0,65,40ZM32,44a2,2,0,0,0-1.41.59L19,56.17V46a2,2,0,0,0-2-2H13a4,4,0,0,1-4-4V16a4,4,0,0,1,4-4H57a4,4,0,0,1,4,4V40a4,4,0,0,1-4,4Z"/><path class="cls-1" d="M70.93,39H69a1,1,0,0,0,0,2h1.93A3.08,3.08,0,0,1,74,44.07V60.36a3.08,3.08,0,0,1-3.07,3.07H68a1,1,0,0,0-1,1v7.23l-8.31-7.95a1,1,0,0,0-.69-.28H41.07A3.08,3.08,0,0,1,38,60.36V52a1,1,0,0,0-2,0v8.36a5.08,5.08,0,0,0,5.07,5.07H57.6l9.71,9.29A1,1,0,0,0,68,75a1,1,0,0,0,.39-.08A1,1,0,0,0,69,74V65.43h1.93A5.08,5.08,0,0,0,76,60.36V44.07A5.08,5.08,0,0,0,70.93,39Z"/><circle class="cls-1" cx="23" cy="28" r="3"/><circle class="cls-1" cx="35" cy="28" r="3"/><circle class="cls-1" cx="47" cy="28" r="3"/></svg>