<?xml version="1.0" encoding="utf-8"?>
<!-- Generator: Adobe Illustrator 23.0.1, SVG Export Plug-In . SVG Version: 6.00 Build 0)  -->
<svg version="1.1" id="icons" xmlns="http://www.w3.org/2000/svg" xmlns:xlink="http://www.w3.org/1999/xlink" x="0px" y="0px"
	 viewBox="0 0 78.3 78.3" style="enable-background:new 0 0 78.3 78.3;" xml:space="preserve">
<style type="text/css">
	.st0{fill:#5B76A3;}
</style>
<title>brunel-icon-</title>
<path class="st0" d="M39.2,0C17.5,0,0,17.5,0,39.2s17.5,39.2,39.2,39.2s39.2-17.5,39.2-39.2C78.3,17.5,60.8,0,39.2,0z M39.2,4
	c19.4,0,35.1,15.7,35.1,35.1S58.5,74.3,39.1,74.3C19.8,74.3,4,58.5,4,39.2C4,19.8,19.7,4.1,39.2,4C39.1,4,39.1,4,39.2,4L39.2,4z"/>
<path class="st0" d="M29.7,25.8c0-1.3,1.1-2.4,2.5-2.4c0.6,0,1.2,0.3,1.7,0.7l2.9,2.9V15.9c0-1.3,1.1-2.4,2.4-2.4
	c1.3,0,2.4,1.1,2.4,2.4V27l2.9-2.8c1-0.9,2.5-0.9,3.4,0.1c0.9,0.9,0.9,2.4,0,3.3l-8.2,8.2c-0.3,0.3-0.7,0.3-1,0c0,0,0,0,0,0
	l-8.2-8.2C30,27.1,29.7,26.5,29.7,25.8z"/>
<path class="st0" d="M29.7,52.5c0,1.3,1.1,2.4,2.5,2.4c0.6,0,1.2-0.3,1.7-0.7l2.9-2.9v11.1c0,1.3,1.1,2.4,2.4,2.4
	c1.3,0,2.4-1.1,2.4-2.4V51.3l2.9,2.8c1,0.9,2.5,0.9,3.4-0.1c0.9-0.9,0.9-2.4,0-3.3l-8.2-8.2c-0.3-0.3-0.7-0.3-1,0c0,0,0,0,0,0
	l-8.2,8.2C30,51.2,29.7,51.8,29.7,52.5z"/>
<path class="st0" d="M52.5,29.7c1.3,0,2.4,1.1,2.4,2.5c0,0.6-0.3,1.2-0.7,1.7l-2.9,2.9h11.1c1.3,0,2.4,1.1,2.4,2.4
	c0,1.3-1.1,2.4-2.4,2.4H51.3l2.8,2.9c0.9,1,0.9,2.5-0.1,3.4c-0.9,0.9-2.4,0.9-3.3,0l-8.2-8.2c-0.3-0.3-0.3-0.7,0-1c0,0,0,0,0,0
	l8.2-8.2C51.2,30,51.8,29.7,52.5,29.7z"/>
<path class="st0" d="M25.8,29.7c-1.3,0-2.4,1.1-2.4,2.5c0,0.6,0.3,1.2,0.7,1.7l2.9,2.9H15.9c-1.3,0-2.4,1.1-2.4,2.4
	c0,1.3,1.1,2.4,2.4,2.4c0,0,0,0,0,0H27l-2.8,2.9c-0.9,1-0.9,2.5,0.1,3.4c0.9,0.9,2.4,0.9,3.3,0l8.2-8.2c0.3-0.3,0.3-0.7,0-1
	c0,0,0,0,0,0l-8.2-8.2C27.1,30,26.5,29.7,25.8,29.7z"/>
</svg>
