<svg id="icons" xmlns="http://www.w3.org/2000/svg" viewBox="0 0 80 62"><defs><style>.cls-1{fill:#3976c5;}</style></defs><title>brunel-icon-accreditation-primary</title><path class="cls-1" d="M66.44,36.58l.2-1.41A2,2,0,0,0,65,32.92l-1.41-.25-.67-1.26a2,2,0,0,0-2.65-.86L59,31.17l-1.28-.62a2,2,0,0,0-2.65.86l-.67,1.26-1.4.25a2,2,0,0,0-1.63,2.25l.2,1.41-1,1a2,2,0,0,0,0,2.78l1,1-.2,1.41A2,2,0,0,0,53,45.08l1.19.21L52,57.83a1,1,0,0,0,.45,1,1,1,0,0,0,1.1,0L59,55.2l5.45,3.63a1,1,0,0,0,1.09,0,1,1,0,0,0,.45-1L63.82,45.29,65,45.08a2,2,0,0,0,1.63-2.25l-.2-1.41,1-1a2,2,0,0,0,0-2.78ZM55.11,38.66A2,2,0,0,0,55.65,37l-.06-.47.46-.08a2,2,0,0,0,1.42-1L57.7,35l.42.21a2,2,0,0,0,1.76,0L60.3,35l.23.42a2,2,0,0,0,1.42,1l.46.08-.06.47a2,2,0,0,0,.54,1.67l.33.34-.33.34A2,2,0,0,0,62.35,41l.06.47-.46.08a2,2,0,0,0-1.42,1L60.3,43l-.42-.21a2,2,0,0,0-1.76,0L57.7,43l-.23-.42a2,2,0,0,0-1.42-1l-.46-.08.06-.47a2,2,0,0,0-.54-1.67L54.78,39Zm4.44,14.51a1,1,0,0,0-1.1,0l-4.07,2.71,1.46-8.49a2,2,0,0,0,1.88.06L59,46.83l1.28.62a1.94,1.94,0,0,0,1.87-.06l1.47,8.49Z" transform="translate(0 -9)"/><path class="cls-1" d="M74,9H6a6,6,0,0,0-6,6V65a6,6,0,0,0,6,6H74a6,6,0,0,0,6-6V15A6,6,0,0,0,74,9Zm2,56a2,2,0,0,1-2,2H6a2,2,0,0,1-2-2V15a2,2,0,0,1,2-2H74a2,2,0,0,1,2,2Z" transform="translate(0 -9)"/><path class="cls-1" d="M40,34H14a1,1,0,0,0,0,2H40a1,1,0,0,0,0-2Z" transform="translate(0 -9)"/><path class="cls-1" d="M40,38H14a1,1,0,0,0,0,2H40a1,1,0,0,0,0-2Z" transform="translate(0 -9)"/><path class="cls-1" d="M40,42H14a1,1,0,0,0,0,2H40a1,1,0,0,0,0-2Z" transform="translate(0 -9)"/><path class="cls-1" d="M34,53H20a1,1,0,0,0,0,2H34a1,1,0,0,0,0-2Z" transform="translate(0 -9)"/><path class="cls-1" d="M66,21H14a2,2,0,0,0,0,4H66a2,2,0,0,0,0-4Z" transform="translate(0 -9)"/></svg>