<svg id="icons" xmlns="http://www.w3.org/2000/svg" viewBox="0 0 80 80"><defs><style>.cls-1{fill:#3976c5;}</style></defs><title>brunel-icon-skills-leader-primary</title><path class="cls-1" d="M40,0A40,40,0,1,0,80,40,40,40,0,0,0,40,0Zm0,75.56A35.56,35.56,0,1,1,75.56,40,35.56,35.56,0,0,1,40,75.56Z"/><path class="cls-1" d="M55.56,41.67a4.45,4.45,0,0,0-4.45-4.45H50V35a6.67,6.67,0,0,0-6.67-6.67H36.67A6.67,6.67,0,0,0,30,35v2.22H28.89a4.45,4.45,0,0,0-1,8.77L30,62.91a1.12,1.12,0,0,0,1.11,1H48.89a1.12,1.12,0,0,0,1.11-1L52.11,46A4.47,4.47,0,0,0,55.56,41.67ZM32.22,35a4.44,4.44,0,0,1,4.45-4.44h6.66A4.44,4.44,0,0,1,47.78,35v2.22H45.56V35a1.12,1.12,0,0,0-2.23,0v2.22H36.67V35a1.12,1.12,0,0,0-2.23,0v2.22H32.22ZM47.91,61.67H32.09l-2-15.56H49.86Zm3.2-17.78H28.89a2.23,2.23,0,0,1,0-4.45H51.11a2.23,2.23,0,0,1,0,4.45Z"/><path class="cls-1" d="M40,27.22a5.56,5.56,0,1,0-5.56-5.55A5.56,5.56,0,0,0,40,27.22Zm0-8.89a3.34,3.34,0,1,1-3.33,3.34A3.34,3.34,0,0,1,40,18.33Z"/></svg>