<?xml version="1.0" encoding="utf-8"?>
<!-- Generator: Adobe Illustrator 23.0.1, SVG Export Plug-In . SVG Version: 6.00 Build 0)  -->
<svg version="1.1" id="icons" xmlns="http://www.w3.org/2000/svg" xmlns:xlink="http://www.w3.org/1999/xlink" x="0px" y="0px"
	 viewBox="0 0 80 80" style="enable-background:new 0 0 80 80;" xml:space="preserve">
<style type="text/css">
	.st0{fill:#5B76A3;}
</style>
<title>brunel-icon-skills-results-success-primary</title>
<path class="st0" d="M40,0C17.9,0,0,17.9,0,40s17.9,40,40,40s40-17.9,40-40S62.1,0,40,0z M40,75.6C20.4,75.6,4.4,59.6,4.4,40
	S20.4,4.4,40,4.4S75.6,20.4,75.6,40c0,0,0,0,0,0C75.6,59.6,59.6,75.6,40,75.6z"/>
<path class="st0" d="M58.9,55.6H22.2V23.3c0-0.6-0.5-1.1-1.1-1.1c-0.6,0-1.1,0.5-1.1,1.1v33.3c0,0.6,0.5,1.1,1.1,1.1c0,0,0,0,0,0
	h37.8c0.6,0,1.1-0.5,1.1-1.1S59.5,55.6,58.9,55.6C58.9,55.6,58.9,55.6,58.9,55.6z"/>
<path class="st0" d="M25.6,53.3c0.3,0,0.6-0.1,0.8-0.3l12.5-12.6l3.7,3.7c0.4,0.4,1.1,0.4,1.6,0l0,0l11.4-11.4v4
	c0,0.6,0.5,1.1,1.1,1.1s1.1-0.5,1.1-1.1l0,0V30c0-0.1,0-0.3-0.1-0.4c-0.1-0.3-0.3-0.5-0.6-0.6c-0.1-0.1-0.3-0.1-0.4-0.1H50
	c-0.6,0-1.1,0.5-1.1,1.1c0,0.6,0.5,1.1,1.1,1.1h4L43.3,41.8l-3.7-3.7c-0.4-0.4-1.1-0.4-1.6,0c0,0,0,0,0,0l0,0L24.8,51.4
	c-0.4,0.4-0.4,1.1,0,1.6c0,0,0,0,0,0l0,0C25,53.2,25.3,53.3,25.6,53.3z"/>
</svg>
