<?xml version="1.0" encoding="UTF-8"?>
<svg id="icons" xmlns="http://www.w3.org/2000/svg" viewBox="0 0 80 80"><defs><style>.cls-1{fill:#5b76a3;}</style></defs><title>brunel-icon-skills-leader-secondary</title><path class="cls-1" d="M40,4A36,36,0,1,0,76,40,36,36,0,0,0,40,4Zm0,68A32,32,0,1,1,72,40,32,32,0,0,1,40,72Z"/><path class="cls-1" d="M54,41.5a4,4,0,0,0-4-4H49v-2a6,6,0,0,0-6-6H37a6,6,0,0,0-6,6v2H30a4,4,0,0,0-.9,7.89L31,60.62a1,1,0,0,0,1,.88H48a1,1,0,0,0,1-.88L50.9,45.39A4,4,0,0,0,54,41.5Zm-21-6a4,4,0,0,1,4-4h6a4,4,0,0,1,4,4v2H45v-2a1,1,0,0,0-2,0v2H37v-2a1,1,0,0,0-2,0v2H33Zm14.12,24H32.88l-1.75-14H48.87ZM50,43.5H30a2,2,0,0,1,0-4H50a2,2,0,0,1,0,4Z"/><path class="cls-1" d="M40,28.5a5,5,0,1,0-5-5A5,5,0,0,0,40,28.5Zm0-8a3,3,0,1,1-3,3A3,3,0,0,1,40,20.5Z"/></svg>