<svg id="icons" xmlns="http://www.w3.org/2000/svg" viewBox="0 0 80 75.49"><defs><style>.cls-1{fill:#3976c5;}</style></defs><title>brunel-icon-chat-primary</title><path class="cls-1" d="M67.61,39.34v-27a9,9,0,0,0-9-9H9a9,9,0,0,0-9,9v27a9,9,0,0,0,9,9h2.26V63a2.25,2.25,0,0,0,1.38,2.08,2.18,2.18,0,0,0,.87.17,2.25,2.25,0,0,0,1.59-.66L31.36,48.35H58.59A9,9,0,0,0,67.61,39.34ZM30.42,43.85a2.27,2.27,0,0,0-1.59.66L15.77,57.56V46.1a2.24,2.24,0,0,0-2.25-2.25H9a4.5,4.5,0,0,1-4.5-4.51v-27A4.5,4.5,0,0,1,9,7.79H58.59A4.51,4.51,0,0,1,63.1,12.3v27a4.51,4.51,0,0,1-4.51,4.51Z" transform="translate(0 -3.28)"/><path class="cls-1" d="M74.29,38.21H72.11a1.13,1.13,0,0,0,0,2.25h2.18a3.48,3.48,0,0,1,3.46,3.46V62.28a3.47,3.47,0,0,1-3.46,3.46H71a1.12,1.12,0,0,0-1.13,1.12V75l-9.36-9a1.13,1.13,0,0,0-.78-.31H40.64a3.47,3.47,0,0,1-3.46-3.46V52.86a1.13,1.13,0,1,0-2.25,0v9.42A5.72,5.72,0,0,0,40.64,68H59.27L70.21,78.46a1.13,1.13,0,0,0,.78.31,1.12,1.12,0,0,0,1.12-1.12V68h2.18A5.72,5.72,0,0,0,80,62.28V43.92A5.73,5.73,0,0,0,74.29,38.21Z" transform="translate(0 -3.28)"/><circle class="cls-1" cx="20.28" cy="22.54" r="3.38"/><circle class="cls-1" cx="33.8" cy="22.54" r="3.38"/><circle class="cls-1" cx="47.32" cy="22.54" r="3.38"/></svg>